<svg preserveAspectRatio="none" width="100%" height="100%" overflow="visible" style="display: block;" viewBox="0 0 12 9" fill="none" xmlns="http://www.w3.org/2000/svg">
<path id="Vector" d="M11.5385 0H0.461538C0.339131 0 0.221737 0.0474107 0.135181 0.131802C0.0486262 0.216193 0 0.330653 0 0.45V8.1C0 8.33869 0.0972524 8.56761 0.270363 8.7364C0.443473 8.90518 0.678262 9 0.923077 9H11.0769C11.3217 9 11.5565 8.90518 11.7296 8.7364C11.9027 8.56761 12 8.33869 12 8.1V0.45C12 0.330653 11.9514 0.216193 11.8648 0.131802C11.7783 0.0474107 11.6609 0 11.5385 0ZM10.3517 0.9L6 4.78969L1.64827 0.9H10.3517ZM11.0769 8.1H0.923077V1.47319L5.68788 5.73187C5.77303 5.80809 5.88441 5.85037 6 5.85037C6.11559 5.85037 6.22697 5.80809 6.31212 5.73187L11.0769 1.47319V8.1Z" fill="var(--fill-0, #868E96)"/>
</svg>
