<svg width="338" height="65" viewBox="0 0 338 65" fill="none" xmlns="http://www.w3.org/2000/svg">
<g clip-path="url(#clip0_38_149)">
<mask id="path-1-outside-1_38_149" maskUnits="userSpaceOnUse" x="1" y="9" width="338" height="77" fill="black">
<rect fill="white" x="1" y="9" width="338" height="77"/>
<path d="M3.89414 84C2.89414 84 2.39414 83.6333 2.39414 82.9C2.39414 82.3 2.82747 81.9 3.69414 81.7L5.99414 81.3C7.39414 81.0333 8.29414 80.6667 8.69414 80.2C9.16081 79.7333 9.39414 78.8 9.39414 77.4V18.6C9.39414 17.2 9.16081 16.2667 8.69414 15.8C8.29414 15.3333 7.39414 14.9667 5.99414 14.7L3.69414 14.3C2.82747 14.1 2.39414 13.7 2.39414 13.1C2.39414 12.3667 2.89414 12 3.89414 12H37.4941C39.0275 12 39.8608 12.7667 39.9941 14.3L40.7941 30.9C40.9275 32.0333 40.4941 32.6 39.4941 32.6C38.6941 32.6 38.2275 32.1667 38.0941 31.3L37.4941 27.6C36.7608 23.0667 35.2608 19.7667 32.9941 17.7C30.7275 15.5667 27.5941 14.5 23.5941 14.5C20.9275 14.5 19.0608 14.9 17.9941 15.7C16.9941 16.4333 16.4941 17.7667 16.4941 19.7V43.8C16.4941 44.7333 16.9608 45.2 17.8941 45.2H22.8941C25.8275 45.2 27.6275 43.6333 28.2941 40.5L29.2941 35.5C29.5608 34.5 30.1275 34.0667 30.9941 34.2C31.7275 34.3333 32.0941 34.9 32.0941 35.9V58.4C32.0941 59.4 31.7275 59.9667 30.9941 60.1C30.1275 60.2333 29.5608 59.8 29.2941 58.8L28.2941 53.9C27.8275 51.5667 27.1608 50.0333 26.2941 49.3C25.4941 48.5667 24.3275 48.2 22.7941 48.2H17.8941C16.9608 48.2 16.4941 48.6667 16.4941 49.6V74.7C16.4941 77.1 17.0941 78.8333 18.2941 79.9C19.5608 80.9667 21.8275 81.5 25.0941 81.5C28.4275 81.5 31.2608 80.6667 33.5941 79C35.9941 77.2667 37.6608 74.0667 38.5941 69.4L39.7941 63.5C39.9941 62.6333 40.4941 62.2 41.2941 62.2C42.2275 62.2 42.6275 62.7667 42.4941 63.9L41.4941 81.7C41.3608 83.2333 40.5275 84 38.9941 84H3.89414ZM62.7652 84.9C62.1652 84.9 61.7319 84.5333 61.4652 83.8L48.1652 39.7C47.6986 38.1 47.2319 37.0667 46.7652 36.6C46.3652 36.1333 45.6986 35.8 44.7652 35.6L43.2652 35.3C42.3986 35.1 41.9652 34.6667 41.9652 34C41.9652 33.3333 42.4319 33 43.3652 33H59.8652C60.7986 33 61.2652 33.3333 61.2652 34C61.2652 34.7333 60.8319 35.1667 59.9652 35.3L58.3652 35.5C56.7652 35.7 55.7652 36.1 55.3652 36.7C54.9652 37.2333 54.9652 38.2333 55.3652 39.7L63.6652 68.6C63.8652 69.3333 64.1986 69.7 64.6652 69.7C65.1319 69.7 65.4652 69.3333 65.6652 68.6L73.7652 41.5C74.2986 39.7 74.4319 38.3667 74.1652 37.5C73.9652 36.5667 73.0319 35.9667 71.3652 35.7L69.2652 35.3C68.3986 35.1 67.9652 34.6667 67.9652 34C67.9652 33.3333 68.4319 33 69.3652 33H82.0652C82.9986 33 83.4652 33.3667 83.4652 34.1C83.4652 34.7667 83.0652 35.2333 82.2652 35.5L81.3652 35.8C80.3652 36.1333 79.4986 36.7333 78.7652 37.6C78.0986 38.4667 77.4319 39.9667 76.7652 42.1L64.0652 83.8C63.7986 84.5333 63.3652 84.9 62.7652 84.9ZM93.4512 84.9C90.6512 84.9 88.3512 84.0333 86.5512 82.3C84.7512 80.5 83.8512 78.1333 83.8512 75.2C83.8512 72.3333 84.7512 69.6333 86.5512 67.1C88.3512 64.5 90.8178 62.1667 93.9512 60.1C97.0845 58.0333 100.651 56.3667 104.651 55.1C105.518 54.8333 105.951 54.2667 105.951 53.4V44.3C105.951 41.1 105.451 38.8333 104.451 37.5C103.451 36.1 102.085 35.4 100.351 35.4C98.6845 35.4 97.1512 36.1667 95.7512 37.7C94.4178 39.1667 93.4512 41.6667 92.8512 45.2C92.5178 47.3333 91.7845 48.9 90.6512 49.9C89.5845 50.8333 88.4845 51.3 87.3512 51.3C85.4845 51.3 84.5512 50.3667 84.5512 48.5C84.5512 46.5667 85.0845 44.6667 86.1512 42.8C87.2845 40.8667 88.7512 39.1333 90.5512 37.6C92.3512 36 94.3178 34.7333 96.4512 33.8C98.5845 32.8667 100.718 32.4 102.851 32.4C109.451 32.4 112.751 36.2333 112.751 43.9V74.5C112.751 77.3 113.451 78.7 114.851 78.7C115.718 78.7 116.518 78.1333 117.251 77C117.985 75.8 118.351 73.8 118.351 71C118.351 69.9333 118.785 69.4 119.651 69.4C120.451 69.4 120.851 69.9667 120.851 71.1C120.851 75.9667 119.985 79.5 118.251 81.7C116.585 83.8333 114.685 84.9 112.551 84.9C110.951 84.9 109.685 84.2667 108.751 83C107.818 81.6667 107.185 80.1 106.851 78.3C106.785 77.6333 106.485 77.3 105.951 77.3C105.485 77.2333 105.018 77.5333 104.551 78.2C102.951 80.4 101.318 82.0667 99.6512 83.2C97.9845 84.3333 95.9178 84.9 93.4512 84.9ZM96.1512 80.3C97.8845 80.3 99.4845 79.7 100.951 78.5C102.418 77.2333 103.618 75.5667 104.551 73.5C105.485 71.4333 105.951 69.1 105.951 66.5V59.2C105.951 57.9333 105.251 57.5667 103.851 58.1C99.7845 59.5667 96.6178 61.6 94.3512 64.2C92.1512 66.7333 91.0512 69.8 91.0512 73.4C91.0512 78 92.7512 80.3 96.1512 80.3ZM169.885 83C169.618 83 169.318 82.9 168.985 82.7C168.651 82.5 168.418 82.0667 168.285 81.4L153.185 20.1C153.118 19.6333 152.918 19.4333 152.585 19.5C152.251 19.5 152.085 19.7333 152.085 20.2L150.085 75.4C150.018 77.2667 150.318 78.7 150.985 79.7C151.651 80.6333 152.818 81.2333 154.485 81.5L155.785 81.7C156.651 81.7667 157.085 82.1667 157.085 82.9C157.085 83.6333 156.585 84 155.585 84H141.285C140.285 84 139.785 83.6333 139.785 82.9C139.785 82.1667 140.218 81.7667 141.085 81.7L142.385 81.5C144.118 81.2333 145.285 80.6333 145.885 79.7C146.551 78.7 146.918 77.2667 146.985 75.4L148.985 18.6C149.051 17.2 148.851 16.2667 148.385 15.8C147.918 15.3333 146.918 14.9667 145.385 14.7L143.085 14.3C142.218 14.1 141.785 13.7 141.785 13.1C141.785 12.3667 142.285 12 143.285 12H155.285C157.351 12 158.618 13 159.085 15L171.185 64.9C171.318 65.3667 171.518 65.6 171.785 65.6C172.118 65.6 172.318 65.3667 172.385 64.9L184.985 14.5C185.385 12.8333 186.451 12 188.185 12H199.985C200.985 12 201.485 12.3667 201.485 13.1C201.485 13.7 201.051 14.1 200.185 14.3L197.885 14.7C196.485 14.9667 195.551 15.3333 195.085 15.8C194.618 16.2667 194.418 17.2 194.485 18.6L196.485 77.4C196.551 78.8 196.785 79.7333 197.185 80.2C197.585 80.6667 198.485 81.0333 199.885 81.3L202.185 81.7C203.051 81.9 203.485 82.3 203.485 82.9C203.485 83.6333 202.985 84 201.985 84H183.885C182.885 84 182.385 83.6333 182.385 82.9C182.385 82.3 182.818 81.9 183.685 81.7L185.985 81.3C187.385 81.0333 188.318 80.6667 188.785 80.2C189.251 79.7333 189.451 78.8 189.385 77.4L187.685 20.2C187.685 19.7333 187.518 19.5 187.185 19.5C186.918 19.4333 186.718 19.6 186.585 20L171.385 81.4C171.251 82.0667 171.018 82.5 170.685 82.7C170.418 82.9 170.151 83 169.885 83ZM215.312 23.5C213.912 23.5 212.712 23 211.712 22C210.779 21 210.312 19.7333 210.312 18.2C210.312 16.6667 210.779 15.4333 211.712 14.5C212.712 13.5 213.912 13 215.312 13C216.712 13 217.879 13.5 218.812 14.5C219.745 15.4333 220.212 16.6667 220.212 18.2C220.212 19.7333 219.745 21 218.812 22C217.879 23 216.712 23.5 215.312 23.5ZM206.912 84C205.912 84 205.412 83.6333 205.412 82.9C205.412 82.3 205.845 81.9 206.712 81.7L207.912 81.5C209.579 81.2333 210.645 80.8333 211.112 80.3C211.579 79.7 211.812 78.7 211.812 77.3V43.7C211.812 42.5 211.612 41.7 211.212 41.3C210.879 40.8333 210.245 40.5333 209.312 40.4L207.212 40.1C206.345 40.0333 205.912 39.6667 205.912 39C205.912 38.4667 206.445 38.1 207.512 37.9C209.579 37.5667 211.245 37.0333 212.512 36.3C213.779 35.5667 215.012 34.6667 216.212 33.6C216.812 33 217.312 32.7 217.712 32.7C218.312 32.7 218.612 33.1 218.612 33.9V77.3C218.612 78.7 218.812 79.7 219.212 80.3C219.612 80.9 220.379 81.2667 221.512 81.4L224.012 81.7C224.745 81.8333 225.112 82.2 225.112 82.8C225.112 83.6 224.612 84 223.612 84H206.912ZM228.178 84C227.378 84 226.978 83.6333 226.978 82.9C226.978 82.2333 227.344 81.8333 228.078 81.7L229.478 81.5C230.878 81.3 231.911 80.9 232.578 80.3C233.244 79.7 233.578 78.7 233.578 77.3V20C233.578 18.8 233.378 17.9667 232.978 17.5C232.644 17.0333 232.011 16.7667 231.078 16.7L228.778 16.4C228.044 16.2667 227.678 15.8667 227.678 15.2C227.678 14.5333 228.044 14.1333 228.778 14C230.644 13.6 232.244 13.1333 233.578 12.6C234.911 12.0667 236.011 11.5333 236.878 11C237.944 10.3333 238.744 10 239.278 10C240.011 10 240.378 10.5333 240.378 11.6V77.3C240.378 78.7 240.578 79.7 240.978 80.3C241.444 80.8333 242.378 81.2 243.778 81.4L246.078 81.7C246.811 81.8333 247.178 82.2333 247.178 82.9C247.178 83.6333 246.778 84 245.978 84H228.178ZM250.15 84C249.35 84 248.95 83.6333 248.95 82.9C248.95 82.2333 249.317 81.8333 250.05 81.7L251.45 81.5C252.85 81.3 253.884 80.9 254.55 80.3C255.217 79.7 255.55 78.7 255.55 77.3V20C255.55 18.8 255.35 17.9667 254.95 17.5C254.617 17.0333 253.984 16.7667 253.05 16.7L250.75 16.4C250.017 16.2667 249.65 15.8667 249.65 15.2C249.65 14.5333 250.017 14.1333 250.75 14C252.617 13.6 254.217 13.1333 255.55 12.6C256.884 12.0667 257.984 11.5333 258.85 11C259.917 10.3333 260.717 10 261.25 10C261.984 10 262.35 10.5333 262.35 11.6V77.3C262.35 78.7 262.55 79.7 262.95 80.3C263.417 80.8333 264.35 81.2 265.75 81.4L268.05 81.7C268.784 81.8333 269.15 82.2333 269.15 82.9C269.15 83.6333 268.75 84 267.95 84H250.15ZM289.323 84.9C286.123 84.9 283.256 83.8333 280.723 81.7C278.19 79.5667 276.156 76.5667 274.623 72.7C273.156 68.7667 272.423 64.2333 272.423 59.1C272.423 53.8333 273.19 49.2 274.723 45.2C276.256 41.2 278.356 38.0667 281.023 35.8C283.69 33.5333 286.656 32.4 289.923 32.4C293.856 32.4 297.023 34.0333 299.423 37.3C301.89 40.5 303.123 45.7333 303.123 53C303.123 55.2 302.29 56.3 300.623 56.3H281.623C280.29 56.3 279.623 57.0667 279.623 58.6C279.623 65.6667 280.656 70.9667 282.723 74.5C284.79 78.0333 287.423 79.8 290.623 79.8C293.156 79.8 295.223 78.9 296.823 77.1C298.423 75.3 299.723 72.2667 300.723 68C300.923 67.2667 301.356 66.9 302.023 66.9C302.823 66.9 303.123 67.5667 302.923 68.9C301.856 74.8333 300.156 79 297.823 81.4C295.49 83.7333 292.656 84.9 289.323 84.9ZM281.323 53.8H291.423C294.623 53.8 296.223 52.1333 296.223 48.8C296.223 44.4667 295.69 41.0667 294.623 38.6C293.556 36.1333 291.956 34.9 289.823 34.9C287.223 34.9 285.023 36.4 283.223 39.4C281.49 42.4 280.356 46.6667 279.823 52.2C279.69 53.2667 280.19 53.8 281.323 53.8ZM321.07 39.4C323.803 34.7333 327.103 32.4 330.97 32.4C333.17 32.4 334.803 33.0667 335.87 34.4C336.937 35.6667 337.47 37.1 337.47 38.7C337.47 39.9667 337.137 41 336.47 41.8C335.87 42.6 334.903 43 333.57 43C332.503 43 331.703 42.7667 331.17 42.3C330.703 41.7667 330.303 41.1667 329.97 40.5C329.703 39.8333 329.37 39.2667 328.97 38.8C328.57 38.2667 327.903 38 326.97 38C325.77 38 324.637 38.7333 323.57 40.2C322.503 41.6 321.603 43.5 320.87 45.9C320.203 48.3 319.87 51.0333 319.87 54.1V77.3C319.87 78.7 320.07 79.7 320.47 80.3C320.937 80.9 321.87 81.2667 323.27 81.4L325.97 81.7C326.703 81.8333 327.07 82.2 327.07 82.8C327.07 83.6 326.57 84 325.57 84H308.67C307.67 84 307.17 83.6333 307.17 82.9C307.17 82.3 307.603 81.9 308.47 81.7L309.67 81.5C311.07 81.2333 311.97 80.8333 312.37 80.3C312.837 79.7 313.07 78.7 313.07 77.3V43.7C313.07 42.5 312.87 41.7 312.47 41.3C312.137 40.8333 311.503 40.5333 310.57 40.4L308.47 40.1C307.603 40.0333 307.17 39.6667 307.17 39C307.17 38.4667 307.703 38.1 308.77 37.9C310.837 37.5667 312.403 37.0333 313.47 36.3C314.603 35.5667 315.77 34.6667 316.97 33.6C317.57 33 318.07 32.7 318.47 32.7C319.07 32.7 319.37 33.1 319.37 33.9V39.3C319.37 39.7667 319.57 40.0667 319.97 40.2C320.37 40.2667 320.737 40 321.07 39.4Z"/>
</mask>
<path d="M3.69414 81.7L3.5742 81.0104L3.55537 81.0136L3.53674 81.0179L3.69414 81.7ZM5.99414 81.3L6.1141 81.9897L6.12512 81.9876L5.99414 81.3ZM8.69414 80.2L8.19917 79.705L8.18016 79.724L8.16266 79.7444L8.69414 80.2ZM8.69414 15.8L8.16266 16.2556L8.18016 16.276L8.19917 16.295L8.69414 15.8ZM5.99414 14.7L6.12514 14.0123L6.11408 14.0104L5.99414 14.7ZM3.69414 14.3L3.53674 14.9821L3.55537 14.9864L3.5742 14.9896L3.69414 14.3ZM39.9941 14.3L40.6933 14.2663L40.6927 14.2528L40.6915 14.2394L39.9941 14.3ZM40.7941 30.9L40.095 30.9337L40.0961 30.9578L40.0989 30.9818L40.7941 30.9ZM38.0941 31.3L38.786 31.1936L38.7851 31.188L38.0941 31.3ZM37.4941 27.6L36.8031 27.7118L36.8032 27.712L37.4941 27.6ZM32.9941 17.7L32.5143 18.2098L32.5225 18.2173L32.9941 17.7ZM17.9941 15.7L18.4081 16.2645L18.4141 16.26L17.9941 15.7ZM28.2941 40.5L28.9789 40.6457L28.9805 40.6373L28.2941 40.5ZM29.2941 35.5L28.6178 35.3196L28.6121 35.341L28.6077 35.3627L29.2941 35.5ZM30.9941 34.2L31.1194 33.5113L31.11 33.5096L31.1006 33.5081L30.9941 34.2ZM30.9941 60.1L31.1006 60.7919L31.11 60.7904L31.1194 60.7887L30.9941 60.1ZM29.2941 58.8L28.6083 58.94L28.6124 58.9603L28.6178 58.9804L29.2941 58.8ZM28.2941 53.9L27.6077 54.0373L27.6083 54.04L28.2941 53.9ZM26.2941 49.3L25.8211 49.816L25.8314 49.8254L25.842 49.8344L26.2941 49.3ZM18.2941 79.9L17.8291 80.4232L17.8361 80.4294L17.8432 80.4354L18.2941 79.9ZM33.5941 79L34.001 79.5696L34.004 79.5675L33.5941 79ZM38.5941 69.4L37.9082 69.2605L37.9077 69.2627L38.5941 69.4ZM39.7941 63.5L39.1121 63.3426L39.11 63.3515L39.1082 63.3605L39.7941 63.5ZM42.4941 63.9L41.7989 63.8182L41.7964 63.8394L41.7952 63.8607L42.4941 63.9ZM41.4941 81.7L42.1915 81.7606L42.1924 81.75L42.193 81.7393L41.4941 81.7ZM3.89414 84V83.3C3.45904 83.3 3.2595 83.2166 3.1831 83.1605C3.14717 83.1342 3.09414 83.0899 3.09414 82.9H2.39414H1.69414C1.69414 83.4434 1.89111 83.9492 2.35519 84.2895C2.77878 84.6001 3.32924 84.7 3.89414 84.7V84ZM2.39414 82.9H3.09414C3.09414 82.7915 3.12365 82.7292 3.19394 82.6644C3.28695 82.5785 3.48117 82.4675 3.85154 82.3821L3.69414 81.7L3.53674 81.0179C3.04044 81.1325 2.58466 81.3215 2.24434 81.6356C1.8813 81.9708 1.69414 82.4085 1.69414 82.9H2.39414ZM3.69414 81.7L3.81408 82.3896L6.11408 81.9896L5.99414 81.3L5.8742 80.6104L3.5742 81.0104L3.69414 81.7ZM5.99414 81.3L6.12512 81.9876C6.85169 81.8492 7.47547 81.6801 7.98325 81.4733C8.48256 81.2698 8.9229 81.0087 9.22562 80.6556L8.69414 80.2L8.16266 79.7444C8.06538 79.8579 7.85572 80.0135 7.45503 80.1767C7.06282 80.3365 6.5366 80.4841 5.86316 80.6124L5.99414 81.3ZM8.69414 80.2L9.18912 80.695C9.54416 80.3399 9.76403 79.8566 9.89824 79.3198C10.0335 78.7787 10.0941 78.1338 10.0941 77.4H9.39414H8.69414C8.69414 78.0662 8.6381 78.588 8.54004 78.9802C8.44092 79.3767 8.31079 79.5934 8.19917 79.705L8.69414 80.2ZM9.39414 77.4H10.0941V18.6H9.39414H8.69414V77.4H9.39414ZM9.39414 18.6H10.0941C10.0941 17.8662 10.0335 17.2213 9.89824 16.6802C9.76403 16.1434 9.54416 15.6601 9.18912 15.305L8.69414 15.8L8.19917 16.295C8.31079 16.4066 8.44092 16.6233 8.54004 17.0198C8.6381 17.412 8.69414 17.9338 8.69414 18.6H9.39414ZM8.69414 15.8L9.22562 15.3444C8.9229 14.9913 8.48256 14.7302 7.98325 14.5267C7.47547 14.3199 6.85169 14.1508 6.12512 14.0124L5.99414 14.7L5.86316 15.3876C6.5366 15.5159 7.06282 15.6635 7.45503 15.8233C7.85572 15.9865 8.06538 16.1421 8.16266 16.2556L8.69414 15.8ZM5.99414 14.7L6.11408 14.0104L3.81408 13.6104L3.69414 14.3L3.5742 14.9896L5.8742 15.3896L5.99414 14.7ZM3.69414 14.3L3.85154 13.6179C3.48117 13.5325 3.28695 13.4215 3.19394 13.3356C3.12365 13.2708 3.09414 13.2085 3.09414 13.1H2.39414H1.69414C1.69414 13.5915 1.8813 14.0292 2.24434 14.3644C2.58466 14.6785 3.04044 14.8675 3.53674 14.9821L3.69414 14.3ZM2.39414 13.1H3.09414C3.09414 12.9101 3.14717 12.8658 3.18309 12.8395C3.2595 12.7834 3.45904 12.7 3.89414 12.7V12V11.3C3.32924 11.3 2.77878 11.3999 2.35519 11.7105C1.89111 12.0508 1.69414 12.5565 1.69414 13.1H2.39414ZM3.89414 12V12.7H37.4941V12V11.3H3.89414V12ZM37.4941 12V12.7C38.1483 12.7 38.5477 12.8624 38.7952 13.0901C39.0431 13.3182 39.2397 13.7048 39.2968 14.3606L39.9941 14.3L40.6915 14.2394C40.6152 13.3619 40.3285 12.5984 39.7431 12.0598C39.1573 11.5209 38.3733 11.3 37.4941 11.3V12ZM39.9941 14.3L39.295 14.3337L40.095 30.9337L40.7941 30.9L41.4933 30.8663L40.6933 14.2663L39.9941 14.3ZM40.7941 30.9L40.0989 30.9818C40.1566 31.4716 40.0689 31.6768 40.0131 31.7498C39.9766 31.7975 39.8691 31.9 39.4941 31.9V32.6V33.3C40.1192 33.3 40.7283 33.1192 41.1252 32.6002C41.5027 32.1065 41.5651 31.4618 41.4893 30.8182L40.7941 30.9ZM39.4941 32.6V31.9C39.2236 31.9 39.0934 31.8298 39.0205 31.762C38.9395 31.6868 38.8376 31.5291 38.786 31.1936L38.0941 31.3L37.4023 31.4064C37.484 31.9376 37.6822 32.4298 38.0678 32.788C38.4615 33.1535 38.9647 33.3 39.4941 33.3V32.6ZM38.0941 31.3L38.7851 31.188L38.1851 27.4879L37.4941 27.6L36.8032 27.712L37.4032 31.412L38.0941 31.3ZM37.4941 27.6L38.1852 27.4882C37.4386 22.8731 35.8948 19.3974 33.4658 17.1827L32.9941 17.7L32.5225 18.2173C34.6268 20.1359 36.083 23.2602 36.8031 27.7118L37.4941 27.6ZM32.9941 17.7L33.4739 17.1903C31.0435 14.9028 27.7198 13.8 23.5941 13.8V14.5V15.2C27.4685 15.2 30.4114 16.2305 32.5144 18.2097L32.9941 17.7ZM23.5941 14.5V13.8C20.9027 13.8 18.8344 14.1948 17.5741 15.14L17.9941 15.7L18.4141 16.26C19.2872 15.6052 20.9522 15.2 23.5941 15.2V14.5ZM17.9941 15.7L17.5802 15.1355C16.3176 16.0614 15.7941 17.6713 15.7941 19.7H16.4941H17.1941C17.1941 17.862 17.6706 16.8053 18.4081 16.2645L17.9941 15.7ZM16.4941 19.7H15.7941V43.8H16.4941H17.1941V19.7H16.4941ZM16.4941 43.8H15.7941C15.7941 44.3746 15.9383 44.9341 16.3492 45.345C16.7601 45.7559 17.3196 45.9 17.8941 45.9V45.2V44.5C17.5354 44.5 17.3949 44.4108 17.3391 44.355C17.2834 44.2993 17.1941 44.1588 17.1941 43.8H16.4941ZM17.8941 45.2V45.9H22.8941V45.2V44.5H17.8941V45.2ZM22.8941 45.2V45.9C24.4894 45.9 25.8489 45.4711 26.9037 44.553C27.9518 43.6408 28.6246 42.3104 28.9788 40.6457L28.2941 40.5L27.6095 40.3543C27.297 41.8229 26.7365 42.8425 25.9846 43.497C25.2394 44.1455 24.2322 44.5 22.8941 44.5V45.2ZM28.2941 40.5L28.9805 40.6373L29.9805 35.6373L29.2941 35.5L28.6077 35.3627L27.6077 40.3627L28.2941 40.5ZM29.2941 35.5L29.9705 35.6804C30.0813 35.2648 30.2285 35.0696 30.3444 34.981C30.4429 34.9057 30.5966 34.8471 30.8877 34.8919L30.9941 34.2L31.1006 33.5081C30.5251 33.4196 29.9621 33.511 29.4939 33.8689C29.0431 34.2137 28.7736 34.7352 28.6178 35.3196L29.2941 35.5ZM30.9941 34.2L30.8689 34.8887C31.0674 34.9248 31.1646 35.002 31.2314 35.1053C31.3142 35.2331 31.3941 35.4739 31.3941 35.9H32.0941H32.7941C32.7941 35.3261 32.6908 34.7836 32.4068 34.3447C32.107 33.8813 31.6542 33.6085 31.1194 33.5113L30.9941 34.2ZM32.0941 35.9H31.3941V58.4H32.0941H32.7941V35.9H32.0941ZM32.0941 58.4H31.3941C31.3941 58.8261 31.3142 59.0669 31.2314 59.1947C31.1646 59.298 31.0674 59.3752 30.8689 59.4113L30.9941 60.1L31.1194 60.7887C31.6542 60.6915 32.107 60.4187 32.4068 59.9553C32.6908 59.5164 32.7941 58.9739 32.7941 58.4H32.0941ZM30.9941 60.1L30.8877 59.4081C30.5966 59.4529 30.4429 59.3943 30.3444 59.3189C30.2285 59.2304 30.0813 59.0352 29.9705 58.6196L29.2941 58.8L28.6178 58.9804C28.7736 59.5648 29.0431 60.0863 29.4939 60.431C29.9621 60.789 30.5251 60.8804 31.1006 60.7919L30.9941 60.1ZM29.2941 58.8L29.98 58.66L28.98 53.76L28.2941 53.9L27.6083 54.04L28.6083 58.94L29.2941 58.8ZM28.2941 53.9L28.9805 53.7627C28.5108 51.4141 27.8098 49.6655 26.7463 48.7656L26.2941 49.3L25.842 49.8344C26.5118 50.4011 27.1441 51.7193 27.6077 54.0373L28.2941 53.9ZM26.2941 49.3L26.7671 48.784C25.7932 47.8912 24.4304 47.5 22.7941 47.5V48.2V48.9C24.2245 48.9 25.1951 49.2421 25.8211 49.816L26.2941 49.3ZM22.7941 48.2V47.5H17.8941V48.2V48.9H22.7941V48.2ZM17.8941 48.2V47.5C17.3196 47.5 16.7601 47.6441 16.3492 48.055C15.9383 48.4659 15.7941 49.0254 15.7941 49.6H16.4941H17.1941C17.1941 49.2412 17.2834 49.1007 17.3391 49.045C17.3949 48.9892 17.5354 48.9 17.8941 48.9V48.2ZM16.4941 49.6H15.7941V74.7H16.4941H17.1941V49.6H16.4941ZM16.4941 74.7H15.7941C15.7941 77.2002 16.4185 79.1693 17.8291 80.4232L18.2941 79.9L18.7592 79.3768C17.7698 78.4973 17.1941 76.9998 17.1941 74.7H16.4941ZM18.2941 79.9L17.8432 80.4354C19.3115 81.6719 21.7995 82.2 25.0941 82.2V81.5V80.8C21.8555 80.8 19.8101 80.2614 18.745 79.3646L18.2941 79.9ZM25.0941 81.5V82.2C28.5489 82.2 31.5305 81.3343 34.001 79.5696L33.5941 79L33.1873 78.4304C30.9911 79.9991 28.3061 80.8 25.0941 80.8V81.5ZM33.5941 79L34.004 79.5675C36.6125 77.6835 38.3326 74.2772 39.2805 69.5373L38.5941 69.4L37.9077 69.2627C36.989 73.8562 35.3757 76.8498 33.1843 78.4325L33.5941 79ZM38.5941 69.4L39.2801 69.5395L40.4801 63.6395L39.7941 63.5L39.1082 63.3605L37.9082 69.2605L38.5941 69.4ZM39.7941 63.5L40.4762 63.6574C40.5542 63.3194 40.6724 63.1451 40.7776 63.054C40.875 62.9695 41.0257 62.9 41.2941 62.9V62.2V61.5C40.7625 61.5 40.2633 61.6471 39.8607 61.996C39.4658 62.3382 39.2341 62.8139 39.1121 63.3426L39.7941 63.5ZM41.2941 62.2V62.9C41.6193 62.9 41.6962 62.9917 41.7223 63.0287C41.7756 63.1042 41.8576 63.3194 41.7989 63.8182L42.4941 63.9L43.1893 63.9818C43.264 63.3472 43.2127 62.7125 42.866 62.2213C42.4921 61.6916 41.9024 61.5 41.2941 61.5V62.2ZM42.4941 63.9L41.7952 63.8607L40.7952 81.6607L41.4941 81.7L42.193 81.7393L43.193 63.9393L42.4941 63.9ZM41.4941 81.7L40.7968 81.6394C40.7397 82.2952 40.5431 82.6818 40.2952 82.9099C40.0477 83.1376 39.6483 83.3 38.9941 83.3V84V84.7C39.8733 84.7 40.6573 84.4791 41.2431 83.9402C41.8285 83.4016 42.1152 82.6381 42.1915 81.7606L41.4941 81.7ZM38.9941 84V83.3H3.89414V84V84.7H38.9941V84ZM61.4652 83.8L60.7951 84.0021L60.8007 84.0208L60.8074 84.0392L61.4652 83.8ZM48.1652 39.7L47.4932 39.896L47.495 39.9021L48.1652 39.7ZM46.7652 36.6L46.2338 37.0555L46.2513 37.076L46.2703 37.095L46.7652 36.6ZM44.7652 35.6L44.9119 34.9155L44.9025 34.9136L44.7652 35.6ZM43.2652 35.3L43.1078 35.9821L43.1179 35.9844L43.128 35.9864L43.2652 35.3ZM59.9652 35.3L60.0521 35.9946L60.0619 35.9934L60.0717 35.9919L59.9652 35.3ZM58.3652 35.5L58.4521 36.1946H58.4521L58.3652 35.5ZM55.3652 36.7L55.9252 37.12L55.9369 37.1045L55.9477 37.0883L55.3652 36.7ZM55.3652 39.7L54.6898 39.8842L54.6924 39.8932L55.3652 39.7ZM63.6652 68.6L64.3406 68.4158L64.338 68.4068L63.6652 68.6ZM65.6652 68.6L64.9946 68.3995L64.9921 68.4076L64.9899 68.4158L65.6652 68.6ZM73.7652 41.5L74.4359 41.7005L74.4364 41.6989L73.7652 41.5ZM74.1652 37.5L73.4808 37.6467L73.4872 37.6766L73.4962 37.7059L74.1652 37.5ZM71.3652 35.7L71.2343 36.3876L71.2444 36.3896L71.2546 36.3912L71.3652 35.7ZM69.2652 35.3L69.1078 35.9821L69.121 35.9851L69.1343 35.9876L69.2652 35.3ZM82.2652 35.5L82.4866 36.1641H82.4866L82.2652 35.5ZM81.3652 35.8L81.1439 35.1359V35.1359L81.3652 35.8ZM78.7652 37.6L78.2309 37.1478L78.2203 37.1603L78.2104 37.1732L78.7652 37.6ZM76.7652 42.1L76.0971 41.8912L76.0956 41.8961L76.7652 42.1ZM64.0652 83.8L64.7231 84.0392L64.7294 84.0217L64.7349 84.0039L64.0652 83.8ZM62.7652 84.9V84.2C62.6206 84.2 62.5251 84.1606 62.4424 84.0906C62.3473 84.0102 62.2297 83.8539 62.1231 83.5608L61.4652 83.8L60.8074 84.0392C60.9675 84.4795 61.1998 84.8732 61.5381 85.1594C61.8887 85.4561 62.3099 85.6 62.7652 85.6V84.9ZM61.4652 83.8L62.1354 83.5979L48.8354 39.4979L48.1652 39.7L47.495 39.9021L60.7951 84.0021L61.4652 83.8ZM48.1652 39.7L48.8372 39.504C48.5986 38.6857 48.3547 37.9937 48.1032 37.4369C47.8564 36.8904 47.5814 36.4262 47.2602 36.105L46.7652 36.6L46.2703 37.095C46.4158 37.2405 46.6074 37.5263 46.8273 38.0131C47.0425 38.4896 47.2652 39.1143 47.4932 39.896L48.1652 39.7ZM46.7652 36.6L47.2967 36.1444C46.7553 35.5128 45.9173 35.131 44.9119 34.9155L44.7652 35.6L44.6186 36.2845C45.4799 36.469 45.9752 36.7539 46.2338 37.0555L46.7652 36.6ZM44.7652 35.6L44.9025 34.9136L43.4025 34.6136L43.2652 35.3L43.128 35.9864L44.628 36.2864L44.7652 35.6ZM43.2652 35.3L43.4226 34.6179C43.0627 34.5349 42.8762 34.421 42.7852 34.33C42.712 34.2568 42.6652 34.1657 42.6652 34H41.9652H41.2652C41.2652 34.501 41.4351 34.9598 41.7953 35.32C42.1376 35.6623 42.6012 35.8651 43.1078 35.9821L43.2652 35.3ZM41.9652 34H42.6652C42.6652 33.9147 42.68 33.8736 42.6871 33.8585C42.6924 33.8472 42.6995 33.8357 42.7221 33.8196C42.7831 33.776 42.9608 33.7 43.3652 33.7V33V32.3C42.8364 32.3 42.314 32.3906 41.9084 32.6804C41.4593 33.0011 41.2652 33.4827 41.2652 34H41.9652ZM43.3652 33V33.7H59.8652V33V32.3H43.3652V33ZM59.8652 33V33.7C60.2697 33.7 60.4474 33.776 60.5084 33.8196C60.5309 33.8357 60.5381 33.8472 60.5434 33.8585C60.5504 33.8736 60.5652 33.9147 60.5652 34H61.2652H61.9652C61.9652 33.4827 61.7712 33.0011 61.3221 32.6804C60.9164 32.3906 60.3941 32.3 59.8652 32.3V33ZM61.2652 34H60.5652C60.5652 34.2201 60.5054 34.3199 60.4453 34.38C60.3705 34.4547 60.2062 34.5547 59.8588 34.6081L59.9652 35.3L60.0717 35.9919C60.591 35.912 61.0766 35.7286 61.4352 35.37C61.8084 34.9967 61.9652 34.5132 61.9652 34H61.2652ZM59.9652 35.3L59.8784 34.6054L58.2784 34.8054L58.3652 35.5L58.4521 36.1946L60.0521 35.9946L59.9652 35.3ZM58.3652 35.5L58.2784 34.8054C57.4453 34.9095 56.731 35.0698 56.1553 35.3001C55.585 35.5282 55.0913 35.8489 54.7828 36.3117L55.3652 36.7L55.9477 37.0883C56.0391 36.9511 56.2455 36.7718 56.6752 36.5999C57.0995 36.4302 57.6851 36.2905 58.4521 36.1946L58.3652 35.5ZM55.3652 36.7L54.8052 36.28C54.479 36.715 54.3652 37.2705 54.3652 37.85C54.3652 38.4356 54.4811 39.1185 54.6899 39.8842L55.3652 39.7L56.0406 39.5158C55.8494 38.8148 55.7652 38.2644 55.7652 37.85C55.7652 37.4295 55.8515 37.2184 55.9252 37.12L55.3652 36.7ZM55.3652 39.7L54.6924 39.8932L62.9924 68.7932L63.6652 68.6L64.338 68.4068L56.038 39.5068L55.3652 39.7ZM63.6652 68.6L62.9899 68.7842C63.1049 69.2057 63.277 69.5986 63.5473 69.8959C63.8374 70.215 64.2213 70.4 64.6652 70.4V69.7V69C64.6425 69 64.6264 69.0017 64.5832 68.9541C64.5201 68.8847 64.4256 68.7276 64.3406 68.4158L63.6652 68.6ZM64.6652 69.7V70.4C65.1091 70.4 65.4931 70.215 65.7832 69.8959C66.0534 69.5986 66.2256 69.2057 66.3406 68.7842L65.6652 68.6L64.9899 68.4158C64.9049 68.7276 64.8104 68.8847 64.7473 68.9541C64.704 69.0017 64.688 69 64.6652 69V69.7ZM65.6652 68.6L66.3359 68.8005L74.4359 41.7005L73.7652 41.5L73.0946 41.2995L64.9946 68.3995L65.6652 68.6ZM73.7652 41.5L74.4364 41.6989C74.9749 39.8816 75.1663 38.3732 74.8343 37.2941L74.1652 37.5L73.4962 37.7059C73.6975 38.3602 73.6223 39.5184 73.0941 41.3011L73.7652 41.5ZM74.1652 37.5L74.8497 37.3533C74.551 35.9593 73.1906 35.2831 71.4758 35.0088L71.3652 35.7L71.2546 36.3912C72.8732 36.6502 73.3795 37.1741 73.4808 37.6467L74.1652 37.5ZM71.3652 35.7L71.4962 35.0124L69.3962 34.6124L69.2652 35.3L69.1343 35.9876L71.2343 36.3876L71.3652 35.7ZM69.2652 35.3L69.4226 34.6179C69.0627 34.5349 68.8762 34.421 68.7852 34.33C68.712 34.2568 68.6652 34.1657 68.6652 34H67.9652H67.2652C67.2652 34.501 67.4351 34.9598 67.7953 35.32C68.1376 35.6623 68.6012 35.8651 69.1078 35.9821L69.2652 35.3ZM67.9652 34H68.6652C68.6652 33.9147 68.68 33.8736 68.6871 33.8585C68.6924 33.8472 68.6995 33.8357 68.7221 33.8196C68.7831 33.776 68.9608 33.7 69.3652 33.7V33V32.3C68.8364 32.3 68.314 32.3906 67.9084 32.6804C67.4593 33.0011 67.2652 33.4827 67.2652 34H67.9652ZM69.3652 33V33.7H82.0652V33V32.3H69.3652V33ZM82.0652 33V33.7C82.4593 33.7 82.6257 33.7806 82.6828 33.8254C82.7076 33.845 82.7652 33.8922 82.7652 34.1H83.4652H84.1652C84.1652 33.5744 83.9895 33.0717 83.5477 32.7246C83.1381 32.4027 82.6045 32.3 82.0652 32.3V33ZM83.4652 34.1H82.7652C82.7652 34.2815 82.7155 34.3991 82.6338 34.4944C82.5415 34.602 82.3665 34.7284 82.0439 34.8359L82.2652 35.5L82.4866 36.1641C82.964 36.005 83.3889 35.7646 83.6967 35.4056C84.015 35.0342 84.1652 34.5852 84.1652 34.1H83.4652ZM82.2652 35.5L82.0439 34.8359L81.1439 35.1359L81.3652 35.8L81.5866 36.4641L82.4866 36.1641L82.2652 35.5ZM81.3652 35.8L81.1439 35.1359C80.0127 35.513 79.0405 36.191 78.2309 37.1478L78.7652 37.6L79.2996 38.0522C79.9566 37.2757 80.7178 36.7537 81.5866 36.4641L81.3652 35.8ZM78.7652 37.6L78.2104 37.1732C77.4642 38.1433 76.7682 39.7438 76.0971 41.8912L76.7652 42.1L77.4334 42.3088C78.0956 40.1895 78.733 38.79 79.3201 38.0268L78.7652 37.6ZM76.7652 42.1L76.0956 41.8961L63.3956 83.5961L64.0652 83.8L64.7349 84.0039L77.4349 42.3039L76.7652 42.1ZM64.0652 83.8L63.4074 83.5608C63.3008 83.8539 63.1832 84.0102 63.0881 84.0906C63.0054 84.1606 62.9099 84.2 62.7652 84.2V84.9V85.6C63.2206 85.6 63.6417 85.4561 63.9924 85.1594C64.3306 84.8732 64.563 84.4795 64.7231 84.0392L64.0652 83.8ZM86.5512 82.3L86.0561 82.7951L86.0656 82.8042L86.5512 82.3ZM86.5512 67.1L87.1218 67.5055L87.1267 67.4984L86.5512 67.1ZM93.9512 60.1L93.5658 59.5157V59.5157L93.9512 60.1ZM104.651 55.1L104.445 54.4309L104.44 54.4327L104.651 55.1ZM104.451 37.5L103.882 37.9069L103.886 37.9135L103.891 37.92L104.451 37.5ZM95.7512 37.7L95.2342 37.228L95.2332 37.2291L95.7512 37.7ZM92.8512 45.2L92.161 45.0828L92.1596 45.0919L92.8512 45.2ZM90.6512 49.9L91.1121 50.4268L91.1143 50.4249L90.6512 49.9ZM86.1512 42.8L85.5472 42.446L85.5434 42.4527L86.1512 42.8ZM90.5512 37.6L91.0051 38.1329L91.0107 38.1281L91.0162 38.1232L90.5512 37.6ZM96.4512 33.8L96.1706 33.1587V33.1587L96.4512 33.8ZM117.251 77L117.839 77.3803L117.844 77.3727L117.848 77.365L117.251 77ZM118.251 81.7L117.701 81.2668L117.7 81.2691L118.251 81.7ZM108.751 83L108.178 83.4014L108.183 83.4084L108.188 83.4152L108.751 83ZM106.851 78.3L106.155 78.3697L106.158 78.3987L106.163 78.4275L106.851 78.3ZM105.951 77.3L105.852 77.993L105.901 78H105.951V77.3ZM104.551 78.2L105.117 78.6118L105.125 78.6014L104.551 78.2ZM99.6512 83.2L99.2576 82.6212V82.6212L99.6512 83.2ZM100.951 78.5L101.394 79.0418L101.402 79.0359L101.409 79.0298L100.951 78.5ZM104.551 73.5L103.913 73.2119L104.551 73.5ZM103.851 58.1L104.089 58.7586L104.1 58.7541L103.851 58.1ZM94.3512 64.2L93.8235 63.74L93.8226 63.741L94.3512 64.2ZM93.4512 84.9V84.2C90.8085 84.2 88.6902 83.388 87.0367 81.7958L86.5512 82.3L86.0656 82.8042C88.0122 84.6787 90.4938 85.6 93.4512 85.6V84.9ZM86.5512 82.3L87.0462 81.805C85.3976 80.1565 84.5512 77.9783 84.5512 75.2H83.8512H83.1512C83.1512 78.2883 84.1047 80.8435 86.0562 82.795L86.5512 82.3ZM83.8512 75.2H84.5512C84.5512 72.491 85.3985 69.9308 87.1218 67.5054L86.5512 67.1L85.9805 66.6945C84.1038 69.3358 83.1512 72.1757 83.1512 75.2H83.8512ZM86.5512 67.1L87.1267 67.4984C88.8672 64.9844 91.2642 62.7108 94.3366 60.6843L93.9512 60.1L93.5658 59.5157C90.3714 61.6226 87.8351 64.0156 85.9756 66.7016L86.5512 67.1ZM93.9512 60.1L94.3366 60.6843C97.4101 58.6571 100.917 57.0168 104.862 55.7673L104.651 55.1L104.44 54.4327C100.385 55.7166 96.7589 57.4095 93.5658 59.5157L93.9512 60.1ZM104.651 55.1L104.857 55.769C105.392 55.6045 105.856 55.3272 106.182 54.9002C106.511 54.4703 106.651 53.9531 106.651 53.4H105.951H105.251C105.251 53.7136 105.175 53.913 105.07 54.0498C104.963 54.1894 104.777 54.3288 104.445 54.431L104.651 55.1ZM105.951 53.4H106.651V44.3H105.951H105.251V53.4H105.951ZM105.951 44.3H106.651C106.651 41.0674 106.154 38.6038 105.011 37.08L104.451 37.5L103.891 37.92C104.748 39.0629 105.251 41.1326 105.251 44.3H105.951ZM104.451 37.5L105.021 37.0931C103.888 35.5075 102.309 34.7 100.351 34.7V35.4V36.1C101.86 36.1 103.014 36.6925 103.882 37.9069L104.451 37.5ZM100.351 35.4V34.7C98.4413 34.7 96.7319 35.5877 95.2342 37.228L95.7512 37.7L96.2681 38.172C97.5705 36.7456 98.9277 36.1 100.351 36.1V35.4ZM95.7512 37.7L95.2332 37.2291C93.7628 38.8465 92.7678 41.5096 92.161 45.0828L92.8512 45.2L93.5413 45.3172C94.1345 41.8237 95.0728 39.4868 96.2691 38.1709L95.7512 37.7ZM92.8512 45.2L92.1596 45.0919C91.8408 47.1318 91.1558 48.5212 90.188 49.3751L90.6512 49.9L91.1143 50.4249C92.4132 49.2788 93.1948 47.5349 93.5428 45.3081L92.8512 45.2ZM90.6512 49.9L90.1902 49.3732C89.218 50.2238 88.2756 50.6 87.3512 50.6V51.3V52C88.6934 52 89.951 51.4428 91.1121 50.4268L90.6512 49.9ZM87.3512 51.3V50.6C86.5257 50.6 86.0352 50.3941 85.7461 50.105C85.4571 49.8159 85.2512 49.3254 85.2512 48.5H84.5512H83.8512C83.8512 49.5412 84.112 50.4507 84.7562 51.095C85.4004 51.7392 86.3099 52 87.3512 52V51.3ZM84.5512 48.5H85.2512C85.2512 46.7017 85.7458 44.9203 86.7589 43.1473L86.1512 42.8L85.5434 42.4527C84.4232 44.413 83.8512 46.4316 83.8512 48.5H84.5512ZM86.1512 42.8L86.7551 43.154C87.8466 41.2919 89.2614 39.6182 91.0051 38.1329L90.5512 37.6L90.0972 37.0671C88.2409 38.6484 86.7224 40.4414 85.5473 42.446L86.1512 42.8ZM90.5512 37.6L91.0162 38.1232C92.7632 36.5703 94.668 35.3442 96.7317 34.4413L96.4512 33.8L96.1706 33.1587C93.9677 34.1225 91.9391 35.4297 90.0861 37.0768L90.5512 37.6ZM96.4512 33.8L96.7317 34.4413C98.7848 33.5431 100.823 33.1 102.851 33.1V32.4V31.7C100.613 31.7 98.3842 32.1902 96.1706 33.1587L96.4512 33.8ZM102.851 32.4V33.1C106.014 33.1 108.267 34.0135 109.746 35.7317C111.242 37.4699 112.051 40.151 112.051 43.9H112.751H113.451C113.451 39.9823 112.61 36.9134 110.807 34.8183C108.986 32.7032 106.289 31.7 102.851 31.7V32.4ZM112.751 43.9H112.051V74.5H112.751H113.451V43.9H112.751ZM112.751 74.5H112.051C112.051 75.9358 112.227 77.1168 112.65 77.9631C112.867 78.3961 113.159 78.7629 113.544 79.0199C113.934 79.2799 114.379 79.4 114.851 79.4V78.7V78C114.624 78 114.456 77.9451 114.321 77.8551C114.181 77.7621 114.036 77.6039 113.902 77.337C113.625 76.7832 113.451 75.8643 113.451 74.5H112.751ZM114.851 78.7V79.4C116.067 79.4 117.052 78.5965 117.839 77.3803L117.251 77L116.663 76.6197C115.984 77.6702 115.369 78 114.851 78V78.7ZM117.251 77L117.848 77.365C118.688 75.991 119.051 73.8239 119.051 71H118.351H117.651C117.651 73.7761 117.281 75.609 116.654 76.635L117.251 77ZM118.351 71H119.051C119.051 70.5434 119.147 70.3308 119.219 70.2414C119.269 70.1798 119.369 70.1 119.651 70.1V69.4V68.7C119.067 68.7 118.516 68.8868 118.133 69.3586C117.772 69.8025 117.651 70.39 117.651 71H118.351ZM119.651 69.4V70.1C119.864 70.1 119.932 70.1617 119.979 70.2287C120.058 70.3403 120.151 70.5943 120.151 71.1H120.851H121.551C121.551 70.4723 121.444 69.8764 121.123 69.4213C120.77 68.9216 120.238 68.7 119.651 68.7V69.4ZM120.851 71.1H120.151C120.151 75.9137 119.288 79.2527 117.701 81.2668L118.251 81.7L118.801 82.1332C120.681 79.7473 121.551 76.0196 121.551 71.1H120.851ZM118.251 81.7L117.7 81.2691C116.126 83.2826 114.413 84.2 112.551 84.2V84.9V85.6C114.956 85.6 117.043 84.3841 118.803 82.131L118.251 81.7ZM112.551 84.9V84.2C111.169 84.2 110.113 83.6688 109.315 82.5848L108.751 83L108.188 83.4152C109.256 84.8645 110.733 85.6 112.551 85.6V84.9ZM108.751 83L109.325 82.5986C108.456 81.357 107.857 79.8864 107.539 78.1725L106.851 78.3L106.163 78.4275C106.512 80.3136 107.18 81.9764 108.178 83.4014L108.751 83ZM106.851 78.3L107.548 78.2303C107.507 77.8183 107.384 77.4017 107.096 77.0817C106.789 76.7396 106.375 76.6 105.951 76.6V77.3V78C106.012 78 106.04 78.0094 106.047 78.0124C106.052 78.0143 106.053 78.0147 106.056 78.0183C106.068 78.0316 106.129 78.115 106.155 78.3697L106.851 78.3ZM105.951 77.3L106.05 76.607C105.17 76.4813 104.481 77.0799 103.978 77.7986L104.551 78.2L105.125 78.6014C105.555 77.9867 105.799 77.9853 105.852 77.993L105.951 77.3ZM104.551 78.2L103.985 77.7883C102.417 79.9444 100.839 81.5459 99.2576 82.6212L99.6512 83.2L100.045 83.7788C101.797 82.5874 103.485 80.8556 105.117 78.6117L104.551 78.2ZM99.6512 83.2L99.2576 82.6212C97.7307 83.6594 95.8092 84.2 93.4512 84.2V84.9V85.6C96.0265 85.6 98.2383 85.0073 100.045 83.7788L99.6512 83.2ZM96.1512 80.3V81C98.0615 81 99.8152 80.3339 101.394 79.0418L100.951 78.5L100.508 77.9582C99.1538 79.0661 97.7075 79.6 96.1512 79.6V80.3ZM100.951 78.5L101.409 79.0298C102.964 77.6862 104.221 75.9318 105.189 73.7881L104.551 73.5L103.913 73.2119C103.015 75.2015 101.871 76.7804 100.494 77.9702L100.951 78.5ZM104.551 73.5L105.189 73.7881C106.169 71.6185 106.651 69.1848 106.651 66.5H105.951H105.251C105.251 69.0152 104.8 71.2481 103.913 73.2119L104.551 73.5ZM105.951 66.5H106.651V59.2H105.951H105.251V66.5H105.951ZM105.951 59.2H106.651C106.651 58.4751 106.45 57.7212 105.751 57.3549C105.117 57.0231 104.337 57.1658 103.602 57.4459L103.851 58.1L104.1 58.7541C104.765 58.5008 105.035 58.5603 105.101 58.5951C105.102 58.5954 105.251 58.6582 105.251 59.2H105.951ZM103.851 58.1L103.614 57.4415C99.4629 58.9385 96.1859 61.0302 93.8235 63.74L94.3512 64.2L94.8788 64.66C97.0498 62.1698 100.106 60.1948 104.089 58.7585L103.851 58.1ZM94.3512 64.2L93.8226 63.741C91.5036 66.4114 90.3512 69.6447 90.3512 73.4H91.0512H91.7512C91.7512 69.9553 92.7987 67.0553 94.8797 64.659L94.3512 64.2ZM91.0512 73.4H90.3512C90.3512 75.7657 90.7847 77.6671 91.7632 78.9911C92.7711 80.3546 94.2765 81 96.1512 81V80.3V79.6C94.6258 79.6 93.5813 79.0954 92.8891 78.1589C92.1677 77.1829 91.7512 75.6343 91.7512 73.4H91.0512ZM168.985 82.7L168.625 83.3002V83.3002L168.985 82.7ZM168.285 81.4L168.971 81.2627L168.968 81.2476L168.964 81.2326L168.285 81.4ZM153.185 20.1L152.492 20.199L152.497 20.2335L152.505 20.2674L153.185 20.1ZM152.585 19.5V20.2H152.654L152.722 20.1864L152.585 19.5ZM152.085 20.2L152.784 20.2253L152.785 20.2127V20.2H152.085ZM150.085 75.4L149.385 75.3747L149.385 75.375L150.085 75.4ZM150.985 79.7L150.402 80.0883L150.409 80.0977L150.415 80.1069L150.985 79.7ZM154.485 81.5L154.374 82.1912L154.378 82.1919L154.485 81.5ZM155.785 81.7L155.678 82.3919L155.705 82.3959L155.731 82.3979L155.785 81.7ZM141.085 81.7L141.138 82.3979L141.165 82.3959L141.191 82.3919L141.085 81.7ZM142.385 81.5L142.491 82.1919V82.1919L142.385 81.5ZM145.885 79.7L145.302 79.3117L145.296 79.3215L145.885 79.7ZM146.985 75.4L147.684 75.425V75.4246L146.985 75.4ZM148.985 18.6L148.286 18.5667L148.285 18.5754L148.985 18.6ZM148.385 15.8L148.88 15.305V15.305L148.385 15.8ZM145.385 14.7L145.265 15.3896V15.3896L145.385 14.7ZM143.085 14.3L142.927 14.9821L142.946 14.9864L142.965 14.9896L143.085 14.3ZM159.085 15L158.403 15.1591L158.404 15.165L159.085 15ZM171.185 64.9L170.504 65.065L170.508 65.0787L170.512 65.0923L171.185 64.9ZM172.385 64.9L171.706 64.7302L171.697 64.7653L171.692 64.801L172.385 64.9ZM184.985 14.5L185.664 14.6698L185.665 14.6634L184.985 14.5ZM200.185 14.3L200.305 14.9896L200.324 14.9864L200.342 14.9821L200.185 14.3ZM197.885 14.7L197.765 14.0103L197.754 14.0124L197.885 14.7ZM195.085 15.8L195.58 16.295L195.085 15.8ZM194.485 18.6L195.184 18.5762L195.184 18.5667L194.485 18.6ZM196.485 77.4L195.785 77.4238L195.786 77.4333L196.485 77.4ZM197.185 80.2L196.653 80.6556V80.6556L197.185 80.2ZM199.885 81.3L199.754 81.9877L199.765 81.9896L199.885 81.3ZM202.185 81.7L202.342 81.0179L202.324 81.0136L202.305 81.0104L202.185 81.7ZM183.685 81.7L183.565 81.0104L183.546 81.0136L183.527 81.0179L183.685 81.7ZM185.985 81.3L186.105 81.9897L186.116 81.9876L185.985 81.3ZM188.785 80.2L188.29 79.705V79.705L188.785 80.2ZM189.385 77.4L188.685 77.4208L188.686 77.4333L189.385 77.4ZM187.685 20.2H186.985V20.2104L186.985 20.2208L187.685 20.2ZM187.185 19.5L187.015 20.1791L187.099 20.2H187.185V19.5ZM186.585 20L185.921 19.7786L185.912 19.8049L185.905 19.8318L186.585 20ZM171.385 81.4L170.705 81.2318L170.701 81.2472L170.698 81.2627L171.385 81.4ZM170.685 82.7L170.325 82.0998L170.294 82.1183L170.265 82.14L170.685 82.7ZM169.885 83V82.3C169.79 82.3 169.616 82.2625 169.345 82.0998L168.985 82.7L168.625 83.3002C169.02 83.5375 169.446 83.7 169.885 83.7V83ZM168.985 82.7L169.345 82.0998C169.271 82.0555 169.093 81.872 168.971 81.2627L168.285 81.4L167.598 81.5373C167.743 82.2613 168.032 82.9445 168.625 83.3002L168.985 82.7ZM168.285 81.4L168.964 81.2326L153.864 19.9326L153.185 20.1L152.505 20.2674L167.605 81.5674L168.285 81.4ZM153.185 20.1L153.878 20.001C153.836 19.7087 153.737 19.3627 153.48 19.105C153.179 18.8045 152.79 18.745 152.447 18.8136L152.585 19.5L152.722 20.1864C152.727 20.1854 152.695 20.1928 152.64 20.1791C152.58 20.1641 152.527 20.132 152.49 20.095C152.457 20.0625 152.453 20.0418 152.46 20.06C152.467 20.0783 152.481 20.1214 152.492 20.199L153.185 20.1ZM152.585 19.5V18.8C152.234 18.8 151.878 18.9357 151.64 19.2681C151.434 19.5571 151.385 19.9045 151.385 20.2H152.085H152.785C152.785 20.1227 152.792 20.0773 152.797 20.0559C152.802 20.0348 152.802 20.0504 152.779 20.0819C152.754 20.1176 152.713 20.1542 152.662 20.1781C152.615 20.2002 152.583 20.2 152.585 20.2V19.5ZM152.085 20.2L151.385 20.1747L149.385 75.3747L150.085 75.4L150.784 75.4253L152.784 20.2253L152.085 20.2ZM150.085 75.4L149.385 75.375C149.316 77.3125 149.62 78.9155 150.402 80.0883L150.985 79.7L151.567 79.3117C151.016 78.4846 150.72 77.2208 150.784 75.425L150.085 75.4ZM150.985 79.7L150.415 80.1069C151.233 81.2518 152.61 81.9089 154.374 82.1912L154.485 81.5L154.595 80.8088C153.027 80.5578 152.07 80.0149 151.554 79.2931L150.985 79.7ZM154.485 81.5L154.378 82.1919L155.678 82.3919L155.785 81.7L155.891 81.0081L154.591 80.8081L154.485 81.5ZM155.785 81.7L155.731 82.3979C156.079 82.4247 156.228 82.5114 156.285 82.5644C156.324 82.6008 156.385 82.6777 156.385 82.9H157.085H157.785C157.785 82.389 157.628 81.8992 157.235 81.5356C156.859 81.1886 156.357 81.042 155.838 81.0021L155.785 81.7ZM157.085 82.9H156.385C156.385 83.0899 156.332 83.1342 156.296 83.1605C156.219 83.2166 156.02 83.3 155.585 83.3V84V84.7C156.15 84.7 156.7 84.6001 157.124 84.2895C157.588 83.9492 157.785 83.4434 157.785 82.9H157.085ZM155.585 84V83.3H141.285V84V84.7H155.585V84ZM141.285 84V83.3C140.85 83.3 140.65 83.2166 140.574 83.1605C140.538 83.1342 140.485 83.0899 140.485 82.9H139.785H139.085C139.085 83.4434 139.282 83.9492 139.746 84.2895C140.169 84.6001 140.72 84.7 141.285 84.7V84ZM139.785 82.9H140.485C140.485 82.6777 140.545 82.6008 140.585 82.5644C140.642 82.5114 140.79 82.4247 141.138 82.3979L141.085 81.7L141.031 81.0021C140.512 81.042 140.011 81.1886 139.635 81.5356C139.241 81.8992 139.085 82.389 139.085 82.9H139.785ZM141.085 81.7L141.191 82.3919L142.491 82.1919L142.385 81.5L142.278 80.8081L140.978 81.0081L141.085 81.7ZM142.385 81.5L142.491 82.1919C144.309 81.9122 145.716 81.2577 146.474 80.0785L145.885 79.7L145.296 79.3215C144.854 80.0089 143.927 80.5545 142.278 80.8081L142.385 81.5ZM145.885 79.7L146.467 80.0883C147.235 78.9362 147.615 77.3553 147.684 75.425L146.985 75.4L146.285 75.375C146.221 77.178 145.868 78.4638 145.302 79.3117L145.885 79.7ZM146.985 75.4L147.684 75.4246L149.684 18.6246L148.985 18.6L148.285 18.5754L146.285 75.3754L146.985 75.4ZM148.985 18.6L149.684 18.6333C149.719 17.8983 149.686 17.2496 149.569 16.7033C149.453 16.1606 149.242 15.6674 148.88 15.305L148.385 15.8L147.89 16.295C147.994 16.3992 148.117 16.6061 148.2 16.9967C148.283 17.3837 148.317 17.9017 148.286 18.5667L148.985 18.6ZM148.385 15.8L148.88 15.305C148.544 14.969 148.069 14.7171 147.526 14.5178C146.973 14.3151 146.296 14.1479 145.505 14.0104L145.385 14.7L145.265 15.3896C146.007 15.5188 146.597 15.6682 147.044 15.8322C147.5 15.9996 147.759 16.1644 147.89 16.295L148.385 15.8ZM145.385 14.7L145.505 14.0104L143.205 13.6104L143.085 14.3L142.965 14.9896L145.265 15.3896L145.385 14.7ZM143.085 14.3L143.242 13.6179C142.872 13.5325 142.678 13.4215 142.585 13.3356C142.514 13.2708 142.485 13.2085 142.485 13.1H141.785H141.085C141.085 13.5915 141.272 14.0292 141.635 14.3644C141.975 14.6785 142.431 14.8675 142.927 14.9821L143.085 14.3ZM141.785 13.1H142.485C142.485 12.9101 142.538 12.8658 142.574 12.8395C142.65 12.7834 142.85 12.7 143.285 12.7V12V11.3C142.72 11.3 142.169 11.3999 141.746 11.7105C141.282 12.0508 141.085 12.5565 141.085 13.1H141.785ZM143.285 12V12.7H155.285V12V11.3H143.285V12ZM155.285 12V12.7C156.205 12.7 156.872 12.9215 157.351 13.2994C157.829 13.677 158.196 14.2707 158.403 15.1591L159.085 15L159.766 14.8409C159.507 13.7293 159.007 12.823 158.219 12.2006C157.431 11.5785 156.431 11.3 155.285 11.3V12ZM159.085 15L158.404 15.165L170.504 65.065L171.185 64.9L171.865 64.735L159.765 14.835L159.085 15ZM171.185 64.9L170.512 65.0923C170.592 65.3725 170.711 65.6558 170.903 65.8806C171.114 66.1261 171.415 66.3 171.785 66.3V65.6V64.9C171.824 64.9 171.869 64.9096 171.91 64.9301C171.949 64.9494 171.966 64.9694 171.966 64.9694C171.966 64.9694 171.966 64.9692 171.966 64.9685C171.965 64.9679 171.964 64.967 171.963 64.9657C171.962 64.9632 171.959 64.9594 171.956 64.954C171.949 64.9433 171.94 64.9274 171.929 64.9053C171.908 64.8602 171.883 64.7959 171.858 64.7077L171.185 64.9ZM171.785 65.6V66.3C172.136 66.3 172.471 66.1666 172.716 65.8806C172.938 65.6224 173.035 65.299 173.078 64.999L172.385 64.9L171.692 64.801C171.681 64.8789 171.666 64.9286 171.656 64.9571C171.645 64.9852 171.641 64.9841 171.653 64.9694C171.668 64.9523 171.694 64.9304 171.729 64.9149C171.763 64.9002 171.785 64.9 171.785 64.9V65.6ZM172.385 64.9L173.064 65.0698L185.664 14.6698L184.985 14.5L184.306 14.3302L171.706 64.7302L172.385 64.9ZM184.985 14.5L185.665 14.6634C185.839 13.9422 186.137 13.4723 186.516 13.1766C186.895 12.8802 187.43 12.7 188.185 12.7V12V11.3C187.206 11.3 186.341 11.5364 185.654 12.0734C184.966 12.611 184.531 13.3911 184.304 14.3366L184.985 14.5ZM188.185 12V12.7H199.985V12V11.3H188.185V12ZM199.985 12V12.7C200.42 12.7 200.619 12.7834 200.696 12.8395C200.732 12.8658 200.785 12.9101 200.785 13.1H201.485H202.185C202.185 12.5565 201.988 12.0508 201.524 11.7105C201.1 11.3999 200.55 11.3 199.985 11.3V12ZM201.485 13.1H200.785C200.785 13.2085 200.755 13.2708 200.685 13.3356C200.592 13.4215 200.398 13.5325 200.027 13.6179L200.185 14.3L200.342 14.9821C200.838 14.8675 201.294 14.6785 201.635 14.3644C201.998 14.0292 202.185 13.5915 202.185 13.1H201.485ZM200.185 14.3L200.065 13.6104L197.765 14.0104L197.885 14.7L198.005 15.3896L200.305 14.9896L200.185 14.3ZM197.885 14.7L197.754 14.0124C196.343 14.281 195.219 14.6758 194.59 15.305L195.085 15.8L195.58 16.295C195.884 15.9909 196.626 15.6523 198.016 15.3876L197.885 14.7ZM195.085 15.8L194.59 15.305C194.227 15.6674 194.017 16.1606 193.9 16.7033C193.783 17.2496 193.751 17.8983 193.786 18.6333L194.485 18.6L195.184 18.5667C195.152 17.9017 195.186 17.3837 195.269 16.9967C195.353 16.6061 195.475 16.3992 195.58 16.295L195.085 15.8ZM194.485 18.6L193.785 18.6238L195.785 77.4238L196.485 77.4L197.184 77.3762L195.184 18.5762L194.485 18.6ZM196.485 77.4L195.786 77.4333C195.82 78.1605 195.899 78.7932 196.031 79.3198C196.16 79.8382 196.354 80.3061 196.653 80.6556L197.185 80.2L197.716 79.7444C197.616 79.6273 197.493 79.3951 197.389 78.9802C197.287 78.5735 197.216 78.0395 197.184 77.3667L196.485 77.4ZM197.185 80.2L196.653 80.6556C196.956 81.0087 197.396 81.2698 197.896 81.4733C198.403 81.6801 199.027 81.8492 199.754 81.9876L199.885 81.3L200.016 80.6124C199.342 80.4841 198.816 80.3365 198.424 80.1767C198.023 80.0135 197.814 79.8579 197.716 79.7444L197.185 80.2ZM199.885 81.3L199.765 81.9896L202.065 82.3896L202.185 81.7L202.305 81.0104L200.005 80.6104L199.885 81.3ZM202.185 81.7L202.027 82.3821C202.398 82.4675 202.592 82.5785 202.685 82.6644C202.755 82.7292 202.785 82.7915 202.785 82.9H203.485H204.185C204.185 82.4085 203.998 81.9708 203.635 81.6356C203.294 81.3215 202.838 81.1325 202.342 81.0179L202.185 81.7ZM203.485 82.9H202.785C202.785 83.0899 202.732 83.1342 202.696 83.1605C202.619 83.2166 202.42 83.3 201.985 83.3V84V84.7C202.55 84.7 203.1 84.6001 203.524 84.2895C203.988 83.9492 204.185 83.4434 204.185 82.9H203.485ZM201.985 84V83.3H183.885V84V84.7H201.985V84ZM183.885 84V83.3C183.45 83.3 183.25 83.2166 183.174 83.1605C183.138 83.1342 183.085 83.0899 183.085 82.9H182.385H181.685C181.685 83.4434 181.882 83.9492 182.346 84.2895C182.769 84.6001 183.32 84.7 183.885 84.7V84ZM182.385 82.9H183.085C183.085 82.7915 183.114 82.7292 183.185 82.6644C183.278 82.5785 183.472 82.4675 183.842 82.3821L183.685 81.7L183.527 81.0179C183.031 81.1325 182.575 81.3215 182.235 81.6356C181.872 81.9708 181.685 82.4085 181.685 82.9H182.385ZM183.685 81.7L183.805 82.3896L186.105 81.9896L185.985 81.3L185.865 80.6104L183.565 81.0104L183.685 81.7ZM185.985 81.3L186.116 81.9876C187.526 81.719 188.65 81.3242 189.28 80.695L188.785 80.2L188.29 79.705C187.986 80.0091 187.243 80.3477 185.854 80.6124L185.985 81.3ZM188.785 80.2L189.28 80.695C189.642 80.3326 189.853 79.8394 189.969 79.2967C190.086 78.7504 190.119 78.1017 190.084 77.3667L189.385 77.4L188.686 77.4333C188.717 78.0983 188.683 78.6163 188.6 79.0033C188.517 79.3939 188.394 79.6008 188.29 79.705L188.785 80.2ZM189.385 77.4L190.084 77.3792L188.384 20.1792L187.685 20.2L186.985 20.2208L188.685 77.4208L189.385 77.4ZM187.685 20.2H188.385C188.385 19.9045 188.336 19.5571 188.129 19.2681C187.892 18.9357 187.535 18.8 187.185 18.8V19.5V20.2C187.187 20.2 187.155 20.2002 187.107 20.1781C187.056 20.1542 187.016 20.1176 186.99 20.0819C186.968 20.0504 186.968 20.0348 186.973 20.0559C186.978 20.0773 186.985 20.1227 186.985 20.2H187.685ZM187.185 19.5L187.355 18.8209C187.019 18.7369 186.669 18.8018 186.387 19.0372C186.143 19.2407 186.005 19.5242 185.921 19.7786L186.585 20L187.249 20.2214C187.271 20.1555 187.29 20.1173 187.301 20.0987C187.312 20.0798 187.309 20.0913 187.283 20.1128C187.254 20.1369 187.206 20.1648 187.144 20.1782C187.083 20.1913 187.036 20.1844 187.015 20.1791L187.185 19.5ZM186.585 20L185.905 19.8318L170.705 81.2318L171.385 81.4L172.064 81.5682L187.264 20.1682L186.585 20ZM171.385 81.4L170.698 81.2627C170.577 81.872 170.398 82.0555 170.325 82.0998L170.685 82.7L171.045 83.3002C171.638 82.9445 171.926 82.2613 172.071 81.5373L171.385 81.4ZM170.685 82.7L170.265 82.14C170.089 82.2722 169.966 82.3 169.885 82.3V83V83.7C170.337 83.7 170.748 83.5278 171.105 83.26L170.685 82.7ZM211.712 22L211.2 22.4776L211.209 22.4864L211.217 22.495L211.712 22ZM211.712 14.5L211.217 14.005V14.005L211.712 14.5ZM218.812 14.5L218.3 14.9776L218.309 14.9864L218.317 14.995L218.812 14.5ZM218.812 22L219.324 22.4776V22.4776L218.812 22ZM206.712 81.7L206.597 81.0095L206.576 81.0131L206.555 81.0179L206.712 81.7ZM207.912 81.5L207.802 80.8088L207.797 80.8095L207.912 81.5ZM211.112 80.3L211.639 80.761L211.652 80.7457L211.665 80.7298L211.112 80.3ZM211.212 41.3L210.643 41.7069L210.676 41.754L210.717 41.795L211.212 41.3ZM209.312 40.4L209.411 39.707V39.707L209.312 40.4ZM207.212 40.1L207.311 39.407L207.289 39.4038L207.266 39.4021L207.212 40.1ZM207.512 37.9L207.401 37.2089L207.392 37.2103L207.383 37.212L207.512 37.9ZM212.512 36.3L212.161 35.6942L212.512 36.3ZM216.212 33.6L216.677 34.1232L216.693 34.1095L216.707 34.095L216.212 33.6ZM219.212 80.3L219.795 79.9117V79.9117L219.212 80.3ZM221.512 81.4L221.596 80.705L221.594 80.7048L221.512 81.4ZM224.012 81.7L224.137 81.0113L224.117 81.0075L224.096 81.005L224.012 81.7ZM215.312 23.5V22.8C214.1 22.8 213.077 22.3752 212.207 21.505L211.712 22L211.217 22.495C212.347 23.6248 213.724 24.2 215.312 24.2V23.5ZM211.712 22L212.224 21.5224C211.426 20.668 211.012 19.5792 211.012 18.2H210.312H209.612C209.612 19.8874 210.131 21.332 211.2 22.4776L211.712 22ZM210.312 18.2H211.012C211.012 16.8199 211.426 15.7757 212.207 14.995L211.712 14.5L211.217 14.005C210.131 15.0909 209.612 16.5135 209.612 18.2H210.312ZM211.712 14.5L212.207 14.995C213.077 14.1247 214.1 13.7 215.312 13.7V13V12.3C213.724 12.3 212.347 12.8752 211.217 14.005L211.712 14.5ZM215.312 13V13.7C216.523 13.7 217.503 14.1232 218.3 14.9776L218.812 14.5L219.324 14.0224C218.255 12.8768 216.901 12.3 215.312 12.3V13ZM218.812 14.5L218.317 14.995C219.098 15.7757 219.512 16.8199 219.512 18.2H220.212H220.912C220.912 16.5135 220.393 15.0909 219.307 14.005L218.812 14.5ZM220.212 18.2H219.512C219.512 19.5792 219.098 20.668 218.3 21.5224L218.812 22L219.324 22.4776C220.393 21.332 220.912 19.8874 220.912 18.2H220.212ZM218.812 22L218.3 21.5224C217.503 22.3768 216.523 22.8 215.312 22.8V23.5V24.2C216.901 24.2 218.255 23.6232 219.324 22.4776L218.812 22ZM206.912 84V83.3C206.477 83.3 206.277 83.2166 206.201 83.1605C206.165 83.1342 206.112 83.0899 206.112 82.9H205.412H204.712C204.712 83.4434 204.909 83.9492 205.373 84.2895C205.797 84.6001 206.347 84.7 206.912 84.7V84ZM205.412 82.9H206.112C206.112 82.7915 206.142 82.7292 206.212 82.6644C206.305 82.5785 206.499 82.4675 206.87 82.3821L206.712 81.7L206.555 81.0179C206.058 81.1325 205.603 81.3215 205.262 81.6356C204.899 81.9708 204.712 82.4085 204.712 82.9H205.412ZM206.712 81.7L206.827 82.3905L208.027 82.1905L207.912 81.5L207.797 80.8095L206.597 81.0095L206.712 81.7ZM207.912 81.5L208.023 82.1912C208.882 82.0537 209.615 81.8776 210.208 81.6554C210.791 81.4369 211.297 81.1521 211.639 80.761L211.112 80.3L210.585 79.8391C210.461 79.9812 210.2 80.1631 209.716 80.3446C209.242 80.5224 208.609 80.6797 207.802 80.8088L207.912 81.5ZM211.112 80.3L211.665 80.7298C212.279 79.9398 212.512 78.7411 212.512 77.3H211.812H211.112C211.112 78.6589 210.878 79.4602 210.56 79.8702L211.112 80.3ZM211.812 77.3H212.512V43.7H211.812H211.112V77.3H211.812ZM211.812 43.7H212.512C212.512 43.0662 212.46 42.5046 212.341 42.0302C212.224 41.56 212.029 41.1267 211.707 40.805L211.212 41.3L210.717 41.795C210.795 41.8733 210.901 42.0399 210.983 42.3698C211.064 42.6954 211.112 43.1338 211.112 43.7H211.812ZM211.212 41.3L211.782 40.8931C211.283 40.1956 210.417 39.8507 209.411 39.707L209.312 40.4L209.213 41.093C210.074 41.2159 210.474 41.4711 210.643 41.7069L211.212 41.3ZM209.312 40.4L209.411 39.707L207.311 39.407L207.212 40.1L207.113 40.793L209.213 41.093L209.312 40.4ZM207.212 40.1L207.266 39.4021C206.906 39.3744 206.748 39.2905 206.689 39.2406C206.658 39.214 206.612 39.1672 206.612 39H205.912H205.212C205.212 39.4995 205.383 39.9693 205.785 40.3094C206.159 40.6262 206.652 40.7589 207.158 40.7979L207.212 40.1ZM205.912 39H206.612C206.612 38.9897 206.613 38.9904 206.614 38.9881C206.618 38.9812 206.64 38.9493 206.709 38.9018C206.858 38.799 207.147 38.6806 207.641 38.588L207.512 37.9L207.383 37.212C206.81 37.3194 206.299 37.4843 205.916 37.7482C205.505 38.0304 205.212 38.452 205.212 39H205.912ZM207.512 37.9L207.624 38.5911C209.741 38.2495 211.498 37.6961 212.863 36.9058L212.512 36.3L212.161 35.6942C210.993 36.3706 209.416 36.8838 207.401 37.2089L207.512 37.9ZM212.512 36.3L212.863 36.9058C214.174 36.1467 215.445 35.2182 216.677 34.1232L216.212 33.6L215.747 33.0768C214.579 34.1151 213.384 34.9866 212.161 35.6942L212.512 36.3ZM216.212 33.6L216.707 34.095C216.983 33.8189 217.213 33.6358 217.397 33.5252C217.585 33.4125 217.684 33.4 217.712 33.4V32.7V32C217.34 32 216.989 32.1375 216.677 32.3248C216.361 32.5142 216.041 32.7811 215.717 33.105L216.212 33.6ZM217.712 32.7V33.4C217.785 33.4 217.816 33.4121 217.822 33.4147C217.823 33.4154 217.823 33.414 217.827 33.42C217.846 33.4454 217.912 33.5673 217.912 33.9H218.612H219.312C219.312 33.4327 219.228 32.9546 218.947 32.58C218.638 32.1675 218.183 32 217.712 32V32.7ZM218.612 33.9H217.912V77.3H218.612H219.312V33.9H218.612ZM218.612 77.3H217.912C217.912 78.7291 218.109 79.9075 218.63 80.6883L219.212 80.3L219.795 79.9117C219.515 79.4925 219.312 78.6709 219.312 77.3H218.612ZM219.212 80.3L218.63 80.6883C219.196 81.5377 220.211 81.9518 221.43 82.0952L221.512 81.4L221.594 80.7048C220.547 80.5816 220.028 80.2623 219.795 79.9117L219.212 80.3ZM221.512 81.4L221.429 82.095L223.929 82.395L224.012 81.7L224.096 81.005L221.596 80.705L221.512 81.4ZM224.012 81.7L223.887 82.3887C224.172 82.4406 224.295 82.5226 224.342 82.57C224.373 82.6013 224.412 82.6541 224.412 82.8H225.112H225.812C225.812 82.3459 225.667 81.9154 225.332 81.58C225.013 81.2608 224.585 81.0928 224.137 81.0113L224.012 81.7ZM225.112 82.8H224.412C224.412 83.0455 224.343 83.1187 224.3 83.1534C224.227 83.2119 224.037 83.3 223.612 83.3V84V84.7C224.187 84.7 224.748 84.5881 225.174 84.2466C225.631 83.8812 225.812 83.3545 225.812 82.8H225.112ZM223.612 84V83.3H206.912V84V84.7H223.612V84ZM228.078 81.7L227.979 81.007L227.966 81.0089L227.953 81.0113L228.078 81.7ZM229.478 81.5L229.577 82.193V82.193L229.478 81.5ZM232.578 80.3L233.046 80.8203V80.8203L232.578 80.3ZM232.978 17.5L232.408 17.9069L232.426 17.9321L232.446 17.9556L232.978 17.5ZM231.078 16.7L230.987 17.3941L231.007 17.3968L231.028 17.3982L231.078 16.7ZM228.778 16.4L228.653 17.0887L228.67 17.0918L228.687 17.0941L228.778 16.4ZM228.778 14L228.903 14.6887L228.914 14.6867L228.924 14.6845L228.778 14ZM233.578 12.6L233.318 11.9501V11.9501L233.578 12.6ZM236.878 11L237.245 11.5962L237.249 11.5936L236.878 11ZM240.978 80.3L240.395 80.6883L240.421 80.7264L240.451 80.761L240.978 80.3ZM243.778 81.4L243.679 82.093L243.687 82.0941L243.778 81.4ZM246.078 81.7L246.203 81.0113L246.186 81.0081L246.168 81.0059L246.078 81.7ZM228.178 84V83.3C227.871 83.3 227.772 83.2285 227.751 83.209C227.741 83.2001 227.678 83.1423 227.678 82.9H226.978H226.278C226.278 83.391 226.414 83.8833 226.805 84.241C227.183 84.5882 227.684 84.7 228.178 84.7V84ZM226.978 82.9H227.678C227.678 82.6998 227.729 82.616 227.769 82.573C227.816 82.521 227.931 82.4381 228.203 82.3887L228.078 81.7L227.953 81.0113C227.491 81.0952 227.056 81.279 226.737 81.627C226.409 81.984 226.278 82.4335 226.278 82.9H226.978ZM228.078 81.7L228.177 82.393L229.577 82.193L229.478 81.5L229.379 80.807L227.979 81.007L228.078 81.7ZM229.478 81.5L229.577 82.193C231.041 81.9837 232.232 81.5526 233.046 80.8203L232.578 80.3L232.109 79.7797C231.59 80.2474 230.714 80.6162 229.379 80.807L229.478 81.5ZM232.578 80.3L233.046 80.8203C233.926 80.0285 234.278 78.7884 234.278 77.3H233.578H232.878C232.878 78.6116 232.563 79.3716 232.109 79.7797L232.578 80.3ZM233.578 77.3H234.278V20H233.578H232.878V77.3H233.578ZM233.578 20H234.278C234.278 18.7698 234.082 17.7131 233.509 17.0444L232.978 17.5L232.446 17.9556C232.673 18.2202 232.878 18.8302 232.878 20H233.578ZM232.978 17.5L233.547 17.0931C233.034 16.3739 232.14 16.0741 231.128 16.0018L231.078 16.7L231.028 17.3982C231.882 17.4593 232.255 17.6928 232.408 17.9069L232.978 17.5ZM231.078 16.7L231.168 16.0059L228.868 15.7059L228.778 16.4L228.687 17.0941L230.987 17.3941L231.078 16.7ZM228.778 16.4L228.903 15.7113C228.631 15.6619 228.516 15.579 228.469 15.527C228.429 15.484 228.378 15.4002 228.378 15.2H227.678H226.978C226.978 15.6665 227.109 16.116 227.437 16.473C227.756 16.821 228.191 17.0048 228.653 17.0887L228.778 16.4ZM227.678 15.2H228.378C228.378 14.9998 228.429 14.916 228.469 14.873C228.516 14.821 228.631 14.7381 228.903 14.6887L228.778 14L228.653 13.3113C228.191 13.3952 227.756 13.579 227.437 13.927C227.109 14.284 226.978 14.7335 226.978 15.2H227.678ZM228.778 14L228.924 14.6845C230.818 14.2787 232.458 13.8018 233.838 13.2499L233.578 12.6L233.318 11.9501C232.031 12.4648 230.471 12.9213 228.631 13.3155L228.778 14ZM233.578 12.6L233.838 13.2499C235.194 12.7073 236.333 12.157 237.245 11.5962L236.878 11L236.511 10.4038C235.689 10.9097 234.628 11.426 233.318 11.9501L233.578 12.6ZM236.878 11L237.249 11.5936C237.763 11.2723 238.194 11.0432 238.547 10.8962C238.908 10.7455 239.143 10.7 239.278 10.7V10V9.3C238.879 9.3 238.447 9.42112 238.008 9.60384C237.561 9.79016 237.059 10.061 236.507 10.4064L236.878 11ZM239.278 10V10.7C239.376 10.7 239.428 10.7177 239.454 10.7299C239.475 10.7405 239.499 10.7571 239.526 10.7966C239.592 10.893 239.678 11.1251 239.678 11.6H240.378H241.078C241.078 11.0082 240.98 10.4404 240.68 10.0034C240.347 9.5192 239.839 9.3 239.278 9.3V10ZM240.378 11.6H239.678V77.3H240.378H241.078V11.6H240.378ZM240.378 77.3H239.678C239.678 78.7291 239.875 79.9075 240.395 80.6883L240.978 80.3L241.56 79.9117C241.281 79.4925 241.078 78.6709 241.078 77.3H240.378ZM240.978 80.3L240.451 80.761C241.095 81.4967 242.253 81.8894 243.679 82.093L243.778 81.4L243.877 80.707C242.502 80.5107 241.794 80.1699 241.505 79.8391L240.978 80.3ZM243.778 81.4L243.687 82.0941L245.987 82.3941L246.078 81.7L246.168 81.0059L243.868 80.7059L243.778 81.4ZM246.078 81.7L245.953 82.3887C246.224 82.4381 246.339 82.521 246.387 82.573C246.426 82.616 246.478 82.6998 246.478 82.9H247.178H247.878C247.878 82.4335 247.746 81.984 247.419 81.627C247.1 81.279 246.665 81.0952 246.203 81.0113L246.078 81.7ZM247.178 82.9H246.478C246.478 83.1423 246.414 83.2001 246.405 83.209C246.383 83.2285 246.284 83.3 245.978 83.3V84V84.7C246.471 84.7 246.972 84.5882 247.351 84.241C247.741 83.8833 247.878 83.391 247.878 82.9H247.178ZM245.978 84V83.3H228.178V84V84.7H245.978V84ZM250.05 81.7L249.951 81.007L249.938 81.0089L249.925 81.0113L250.05 81.7ZM251.45 81.5L251.549 82.193V82.193L251.45 81.5ZM254.55 80.3L255.019 80.8203V80.8203L254.55 80.3ZM254.95 17.5L254.381 17.9069L254.399 17.9321L254.419 17.9556L254.95 17.5ZM253.05 16.7L252.96 17.3941L252.98 17.3968L253.001 17.3982L253.05 16.7ZM250.75 16.4L250.625 17.0887L250.642 17.0918L250.66 17.0941L250.75 16.4ZM250.75 14L250.876 14.6887L250.886 14.6867L250.897 14.6845L250.75 14ZM255.55 12.6L255.29 11.9501V11.9501L255.55 12.6ZM258.85 11L259.217 11.5962L259.221 11.5936L258.85 11ZM262.95 80.3L262.368 80.6883L262.393 80.7264L262.424 80.761L262.95 80.3ZM265.75 81.4L265.651 82.093L265.66 82.0941L265.75 81.4ZM268.05 81.7L268.176 81.0113L268.158 81.0081L268.141 81.0059L268.05 81.7ZM250.15 84V83.3C249.844 83.3 249.745 83.2285 249.723 83.209C249.714 83.2001 249.65 83.1423 249.65 82.9H248.95H248.25C248.25 83.391 248.387 83.8833 248.777 84.241C249.156 84.5882 249.657 84.7 250.15 84.7V84ZM248.95 82.9H249.65C249.65 82.6998 249.702 82.616 249.741 82.573C249.789 82.521 249.904 82.4381 250.176 82.3887L250.05 81.7L249.925 81.0113C249.463 81.0952 249.028 81.279 248.709 81.627C248.382 81.984 248.25 82.4335 248.25 82.9H248.95ZM250.05 81.7L250.149 82.393L251.549 82.193L251.45 81.5L251.351 80.807L249.951 81.007L250.05 81.7ZM251.45 81.5L251.549 82.193C253.014 81.9837 254.205 81.5526 255.019 80.8203L254.55 80.3L254.082 79.7797C253.562 80.2474 252.687 80.6162 251.351 80.807L251.45 81.5ZM254.55 80.3L255.019 80.8203C255.899 80.0285 256.25 78.7884 256.25 77.3H255.55H254.85C254.85 78.6116 254.536 79.3716 254.082 79.7797L254.55 80.3ZM255.55 77.3H256.25V20H255.55H254.85V77.3H255.55ZM255.55 20H256.25C256.25 18.7698 256.055 17.7131 255.482 17.0444L254.95 17.5L254.419 17.9556C254.646 18.2202 254.85 18.8302 254.85 20H255.55ZM254.95 17.5L255.52 17.0931C255.006 16.3739 254.112 16.0741 253.1 16.0018L253.05 16.7L253.001 17.3982C253.855 17.4593 254.228 17.6928 254.381 17.9069L254.95 17.5ZM253.05 16.7L253.141 16.0059L250.841 15.7059L250.75 16.4L250.66 17.0941L252.96 17.3941L253.05 16.7ZM250.75 16.4L250.876 15.7113C250.604 15.6619 250.489 15.579 250.441 15.527C250.402 15.484 250.35 15.4002 250.35 15.2H249.65H248.95C248.95 15.6665 249.082 16.116 249.409 16.473C249.728 16.821 250.163 17.0048 250.625 17.0887L250.75 16.4ZM249.65 15.2H250.35C250.35 14.9998 250.402 14.916 250.441 14.873C250.489 14.821 250.604 14.7381 250.876 14.6887L250.75 14L250.625 13.3113C250.163 13.3952 249.728 13.579 249.409 13.927C249.082 14.284 248.95 14.7335 248.95 15.2H249.65ZM250.75 14L250.897 14.6845C252.791 14.2787 254.431 13.8018 255.81 13.2499L255.55 12.6L255.29 11.9501C254.004 12.4648 252.443 12.9213 250.604 13.3155L250.75 14ZM255.55 12.6L255.81 13.2499C257.167 12.7073 258.306 12.157 259.217 11.5962L258.85 11L258.484 10.4038C257.662 10.9097 256.6 11.426 255.29 11.9501L255.55 12.6ZM258.85 11L259.221 11.5936C259.735 11.2723 260.167 11.0432 260.52 10.8962C260.881 10.7455 261.116 10.7 261.25 10.7V10V9.3C260.851 9.3 260.42 9.42112 259.981 9.60384C259.534 9.79016 259.032 10.061 258.479 10.4064L258.85 11ZM261.25 10V10.7C261.349 10.7 261.401 10.7177 261.426 10.7299C261.448 10.7405 261.471 10.7571 261.499 10.7966C261.565 10.893 261.65 11.1251 261.65 11.6H262.35H263.05C263.05 11.0082 262.953 10.4404 262.652 10.0034C262.319 9.5192 261.812 9.3 261.25 9.3V10ZM262.35 11.6H261.65V77.3H262.35H263.05V11.6H262.35ZM262.35 77.3H261.65C261.65 78.7291 261.847 79.9075 262.368 80.6883L262.95 80.3L263.533 79.9117C263.253 79.4925 263.05 78.6709 263.05 77.3H262.35ZM262.95 80.3L262.424 80.761C263.067 81.4967 264.226 81.8894 265.651 82.093L265.75 81.4L265.849 80.707C264.475 80.5107 263.767 80.1699 263.477 79.8391L262.95 80.3ZM265.75 81.4L265.66 82.0941L267.96 82.3941L268.05 81.7L268.141 81.0059L265.841 80.7059L265.75 81.4ZM268.05 81.7L267.925 82.3887C268.197 82.4381 268.312 82.521 268.359 82.573C268.399 82.616 268.45 82.6998 268.45 82.9H269.15H269.85C269.85 82.4335 269.719 81.984 269.391 81.627C269.072 81.279 268.637 81.0952 268.176 81.0113L268.05 81.7ZM269.15 82.9H268.45C268.45 83.1423 268.387 83.2001 268.377 83.209C268.356 83.2285 268.257 83.3 267.95 83.3V84V84.7C268.444 84.7 268.945 84.5882 269.323 84.241C269.714 83.8833 269.85 83.391 269.85 82.9H269.15ZM267.95 84V83.3H250.15V84V84.7H267.95V84ZM280.723 81.7L281.174 81.1646V81.1646L280.723 81.7ZM274.623 72.7L273.967 72.9446L273.97 72.9513L273.972 72.958L274.623 72.7ZM281.023 35.8L280.57 35.2666L281.023 35.8ZM299.423 37.3L298.859 37.7145L298.864 37.721L298.869 37.7274L299.423 37.3ZM282.723 74.5L282.119 74.8534V74.8534L282.723 74.5ZM296.823 77.1L297.346 77.5651V77.5651L296.823 77.1ZM300.723 68L300.048 67.8158L300.044 67.828L300.042 67.8403L300.723 68ZM302.923 68.9L303.612 69.0239L303.614 69.0139L303.615 69.0038L302.923 68.9ZM297.823 81.4L298.318 81.895L298.325 81.888L297.823 81.4ZM294.623 38.6L293.981 38.8778V38.8778L294.623 38.6ZM283.223 39.4L282.623 39.0398L282.617 39.0498L283.223 39.4ZM279.823 52.2L280.518 52.2868L280.519 52.277L280.52 52.2672L279.823 52.2ZM289.323 84.9V84.2C286.294 84.2 283.586 83.1957 281.174 81.1646L280.723 81.7L280.272 82.2354C282.927 84.471 285.952 85.6 289.323 85.6V84.9ZM280.723 81.7L281.174 81.1646C278.749 79.1225 276.775 76.2281 275.274 72.442L274.623 72.7L273.972 72.958C275.538 76.9053 277.63 80.0109 280.272 82.2354L280.723 81.7ZM274.623 72.7L275.279 72.4554C273.847 68.6156 273.123 64.1678 273.123 59.1H272.423H271.723C271.723 64.2988 272.466 68.9177 273.967 72.9446L274.623 72.7ZM272.423 59.1H273.123C273.123 53.9 273.88 49.3546 275.377 45.4506L274.723 45.2L274.069 44.9494C272.499 49.0454 271.723 53.7667 271.723 59.1H272.423ZM274.723 45.2L275.377 45.4506C276.877 41.5358 278.917 38.5088 281.476 36.3334L281.023 35.8L280.57 35.2666C277.796 37.6245 275.635 40.8642 274.069 44.9494L274.723 45.2ZM281.023 35.8L281.476 36.3334C284.026 34.166 286.835 33.1 289.923 33.1V32.4V31.7C286.478 31.7 283.353 32.9007 280.57 35.2666L281.023 35.8ZM289.923 32.4V33.1C293.626 33.1 296.586 34.6208 298.859 37.7145L299.423 37.3L299.987 36.8855C297.46 33.4458 294.087 31.7 289.923 31.7V32.4ZM299.423 37.3L298.869 37.7274C301.191 40.7401 302.423 45.779 302.423 53H303.123H303.823C303.823 45.6877 302.588 40.2599 299.977 36.8726L299.423 37.3ZM303.123 53H302.423C302.423 54.0316 302.224 54.6773 301.94 55.0523C301.684 55.3906 301.288 55.6 300.623 55.6V56.3V57C301.625 57 302.479 56.6594 303.056 55.8977C303.605 55.1727 303.823 54.1684 303.823 53H303.123ZM300.623 56.3V55.6H281.623V56.3V57H300.623V56.3ZM281.623 56.3V55.6C280.821 55.6 280.1 55.8351 279.595 56.4157C279.106 56.9775 278.923 57.7476 278.923 58.6H279.623H280.323C280.323 57.9191 280.473 57.5391 280.651 57.3343C280.813 57.1482 281.092 57 281.623 57V56.3ZM279.623 58.6H278.923C278.923 65.712 279.959 71.1608 282.119 74.8534L282.723 74.5L283.327 74.1466C281.354 70.7726 280.323 65.6213 280.323 58.6H279.623ZM282.723 74.5L282.119 74.8534C284.271 78.5323 287.104 80.5 290.623 80.5V79.8V79.1C287.743 79.1 285.309 77.5343 283.327 74.1466L282.723 74.5ZM290.623 79.8V80.5C293.345 80.5 295.606 79.5231 297.346 77.5651L296.823 77.1L296.3 76.6349C294.84 78.2769 292.968 79.1 290.623 79.1V79.8ZM296.823 77.1L297.346 77.5651C299.064 75.6328 300.396 72.4609 301.405 68.1597L300.723 68L300.042 67.8403C299.05 72.0724 297.782 74.9672 296.3 76.6349L296.823 77.1ZM300.723 68L301.398 68.1842C301.474 67.9086 301.573 67.7749 301.65 67.7094C301.719 67.6511 301.825 67.6 302.023 67.6V66.9V66.2C301.555 66.2 301.11 66.3322 300.746 66.6406C300.39 66.9418 300.173 67.358 300.048 67.8158L300.723 68ZM302.023 66.9V67.6C302.126 67.6 302.162 67.621 302.167 67.6236C302.167 67.6237 302.185 67.6316 302.21 67.6873C302.275 67.8324 302.325 68.1663 302.231 68.7962L302.923 68.9L303.615 69.0038C303.721 68.3003 303.721 67.6343 303.486 67.1127C303.361 66.8351 303.167 66.5929 302.892 66.4264C302.621 66.2623 302.32 66.2 302.023 66.2V66.9ZM302.923 68.9L302.234 68.7761C301.175 74.6678 299.506 78.6643 297.321 80.912L297.823 81.4L298.325 81.888C300.806 79.3357 302.538 74.9989 303.612 69.0239L302.923 68.9ZM297.823 81.4L297.328 80.905C295.128 83.1056 292.473 84.2 289.323 84.2V84.9V85.6C292.84 85.6 295.852 84.3611 298.318 81.895L297.823 81.4ZM281.323 53.8V54.5H291.423V53.8V53.1H281.323V53.8ZM291.423 53.8V54.5C293.138 54.5 294.552 54.0518 295.528 53.0348C296.499 52.0231 296.923 50.5676 296.923 48.8H296.223H295.523C295.523 50.3657 295.147 51.4103 294.518 52.0652C293.894 52.7149 292.908 53.1 291.423 53.1V53.8ZM296.223 48.8H296.923C296.923 44.4227 296.386 40.914 295.266 38.3222L294.623 38.6L293.981 38.8778C294.993 41.2194 295.523 44.5106 295.523 48.8H296.223ZM294.623 38.6L295.266 38.3222C294.7 37.0146 293.97 35.9797 293.05 35.2706C292.121 34.554 291.035 34.2 289.823 34.2V34.9V35.6C290.744 35.6 291.525 35.8626 292.196 36.3794C292.876 36.9036 293.479 37.7187 293.981 38.8778L294.623 38.6ZM289.823 34.9V34.2C286.895 34.2 284.5 35.9111 282.623 39.0399L283.223 39.4L283.823 39.7601C285.546 36.8889 287.552 35.6 289.823 35.6V34.9ZM283.223 39.4L282.617 39.0498C280.812 42.1734 279.664 46.5532 279.126 52.1328L279.823 52.2L280.52 52.2672C281.049 46.7801 282.167 42.6266 283.829 39.7502L283.223 39.4ZM279.823 52.2L279.128 52.1132C279.048 52.7533 279.138 53.3997 279.587 53.8788C280.027 54.3482 280.668 54.5 281.323 54.5V53.8V53.1C280.845 53.1 280.669 52.9851 280.609 52.9212C280.558 52.867 280.464 52.7134 280.518 52.2868L279.823 52.2ZM321.07 39.4L320.466 39.0462L320.462 39.0531L320.458 39.06L321.07 39.4ZM335.87 34.4L335.323 34.8373L335.329 34.8442L335.334 34.8509L335.87 34.4ZM336.47 41.8L335.932 41.3519L335.921 41.3657L335.91 41.38L336.47 41.8ZM331.17 42.3L330.643 42.761L330.674 42.7961L330.709 42.8268L331.17 42.3ZM329.97 40.5L329.32 40.76L329.331 40.787L329.344 40.813L329.97 40.5ZM328.97 38.8L328.41 39.22L328.424 39.2382L328.438 39.2556L328.97 38.8ZM323.57 40.2L324.127 40.6242L324.131 40.618L324.136 40.6117L323.57 40.2ZM320.87 45.9L320.2 45.6954L320.198 45.704L320.195 45.7126L320.87 45.9ZM320.47 80.3L319.887 80.6883L319.902 80.7096L319.917 80.7298L320.47 80.3ZM323.27 81.4L323.347 80.7042L323.336 80.7032L323.27 81.4ZM325.97 81.7L326.095 81.0113L326.071 81.007L326.047 81.0043L325.97 81.7ZM308.47 81.7L308.355 81.0095L308.334 81.0131L308.313 81.0179L308.47 81.7ZM309.67 81.5L309.785 82.1905L309.793 82.1891L309.801 82.1876L309.67 81.5ZM312.37 80.3L311.817 79.8702L311.81 79.88L312.37 80.3ZM312.47 41.3L311.9 41.7069L311.934 41.754L311.975 41.795L312.47 41.3ZM310.57 40.4L310.669 39.707V39.707L310.57 40.4ZM308.47 40.1L308.569 39.407L308.546 39.4038L308.524 39.4021L308.47 40.1ZM308.77 37.9L308.658 37.2089L308.65 37.2103L308.641 37.212L308.77 37.9ZM313.47 36.3L313.09 35.7123L313.081 35.7176L313.073 35.7232L313.47 36.3ZM316.97 33.6L317.435 34.1232L317.45 34.1095L317.465 34.095L316.97 33.6ZM319.97 40.2L319.749 40.8641L319.801 40.8814L319.855 40.8905L319.97 40.2ZM321.07 39.4L321.674 39.7538C324.338 35.2062 327.445 33.1 330.97 33.1V32.4V31.7C326.761 31.7 323.269 34.2604 320.466 39.0462L321.07 39.4ZM330.97 32.4V33.1C333.024 33.1 334.426 33.7158 335.323 34.8373L335.87 34.4L336.417 33.9627C335.18 32.4175 333.316 31.7 330.97 31.7V32.4ZM335.87 34.4L335.334 34.8509C336.299 35.9962 336.77 37.2712 336.77 38.7H337.47H338.17C338.17 36.9288 337.574 35.3372 336.405 33.9491L335.87 34.4ZM337.47 38.7H336.77C336.77 39.8397 336.473 40.7033 335.932 41.3519L336.47 41.8L337.008 42.2481C337.801 41.2967 338.17 40.0937 338.17 38.7H337.47ZM336.47 41.8L335.91 41.38C335.484 41.9485 334.763 42.3 333.57 42.3V43V43.7C335.044 43.7 336.256 43.2515 337.03 42.22L336.47 41.8ZM333.57 43V42.3C332.59 42.3 331.986 42.0836 331.631 41.7732L331.17 42.3L330.709 42.8268C331.421 43.4497 332.417 43.7 333.57 43.7V43ZM331.17 42.3L331.697 41.839C331.271 41.3528 330.904 40.803 330.596 40.1869L329.97 40.5L329.344 40.813C329.702 41.5303 330.135 42.1805 330.643 42.761L331.17 42.3ZM329.97 40.5L330.62 40.24C330.329 39.5138 329.959 38.8782 329.501 38.3444L328.97 38.8L328.438 39.2556C328.781 39.6551 329.077 40.1528 329.32 40.76L329.97 40.5ZM328.97 38.8L329.53 38.38C328.95 37.6068 328.03 37.3 326.97 37.3V38V38.7C327.777 38.7 328.19 38.9265 328.41 39.22L328.97 38.8ZM326.97 38V37.3C325.449 37.3 324.132 38.2367 323.004 39.7883L323.57 40.2L324.136 40.6117C325.141 39.23 326.091 38.7 326.97 38.7V38ZM323.57 40.2L323.013 39.7758C321.88 41.2634 320.949 43.2471 320.2 45.6954L320.87 45.9L321.539 46.1046C322.258 43.7529 323.127 41.9366 324.127 40.6242L323.57 40.2ZM320.87 45.9L320.195 45.7126C319.508 48.1858 319.17 50.984 319.17 54.1H319.87H320.57C320.57 51.0827 320.898 48.4142 321.544 46.0873L320.87 45.9ZM319.87 54.1H319.17V77.3H319.87H320.57V54.1H319.87ZM319.87 77.3H319.17C319.17 78.7291 319.367 79.9075 319.887 80.6883L320.47 80.3L321.052 79.9117C320.773 79.4925 320.57 78.6709 320.57 77.3H319.87ZM320.47 80.3L319.917 80.7298C320.57 81.5692 321.76 81.9594 323.204 82.0968L323.27 81.4L323.336 80.7032C321.98 80.574 321.303 80.2308 321.022 79.8702L320.47 80.3ZM323.27 81.4L323.193 82.0957L325.893 82.3957L325.97 81.7L326.047 81.0043L323.347 80.7043L323.27 81.4ZM325.97 81.7L325.845 82.3887C326.13 82.4406 326.253 82.5226 326.3 82.57C326.331 82.6013 326.37 82.6541 326.37 82.8H327.07H327.77C327.77 82.3459 327.625 81.9154 327.29 81.58C326.971 81.2608 326.543 81.0928 326.095 81.0113L325.97 81.7ZM327.07 82.8H326.37C326.37 83.0455 326.301 83.1187 326.258 83.1534C326.185 83.2119 325.995 83.3 325.57 83.3V84V84.7C326.145 84.7 326.705 84.5881 327.132 84.2466C327.589 83.8812 327.77 83.3545 327.77 82.8H327.07ZM325.57 84V83.3H308.67V84V84.7H325.57V84ZM308.67 84V83.3C308.235 83.3 308.035 83.2166 307.959 83.1605C307.923 83.1342 307.87 83.0899 307.87 82.9H307.17H306.47C306.47 83.4434 306.667 83.9492 307.131 84.2895C307.555 84.6001 308.105 84.7 308.67 84.7V84ZM307.17 82.9H307.87C307.87 82.7915 307.899 82.7292 307.97 82.6644C308.063 82.5785 308.257 82.4675 308.627 82.3821L308.47 81.7L308.313 81.0179C307.816 81.1325 307.36 81.3215 307.02 81.6356C306.657 81.9708 306.47 82.4085 306.47 82.9H307.17ZM308.47 81.7L308.585 82.3905L309.785 82.1905L309.67 81.5L309.555 80.8095L308.355 81.0095L308.47 81.7ZM309.67 81.5L309.801 82.1876C310.532 82.0483 311.164 81.8688 311.679 81.6397C312.19 81.4127 312.632 81.1171 312.93 80.72L312.37 80.3L311.81 79.88C311.708 80.0162 311.5 80.1873 311.111 80.3603C310.726 80.5312 310.207 80.685 309.539 80.8124L309.67 81.5ZM312.37 80.3L312.922 80.7298C313.537 79.9398 313.77 78.7411 313.77 77.3H313.07H312.37C312.37 78.6589 312.136 79.4602 311.817 79.8702L312.37 80.3ZM313.07 77.3H313.77V43.7H313.07H312.37V77.3H313.07ZM313.07 43.7H313.77C313.77 43.0662 313.718 42.5046 313.599 42.0302C313.481 41.56 313.287 41.1267 312.965 40.805L312.47 41.3L311.975 41.795C312.053 41.8733 312.158 42.0399 312.241 42.3698C312.322 42.6954 312.37 43.1338 312.37 43.7H313.07ZM312.47 41.3L313.04 40.8931C312.541 40.1956 311.675 39.8507 310.669 39.707L310.57 40.4L310.471 41.093C311.332 41.2159 311.732 41.4711 311.9 41.7069L312.47 41.3ZM310.57 40.4L310.669 39.707L308.569 39.407L308.47 40.1L308.371 40.793L310.471 41.093L310.57 40.4ZM308.47 40.1L308.524 39.4021C308.164 39.3744 308.006 39.2905 307.947 39.2406C307.916 39.214 307.87 39.1672 307.87 39H307.17H306.47C306.47 39.4995 306.641 39.9693 307.043 40.3094C307.417 40.6262 307.909 40.7589 308.416 40.7979L308.47 40.1ZM307.17 39H307.87C307.87 38.9897 307.871 38.9904 307.872 38.9881C307.876 38.9812 307.897 38.9493 307.966 38.9018C308.116 38.799 308.405 38.6806 308.899 38.588L308.77 37.9L308.641 37.212C308.068 37.3194 307.557 37.4843 307.173 37.7482C306.763 38.0304 306.47 38.452 306.47 39H307.17ZM308.77 37.9L308.881 38.5911C310.994 38.2502 312.678 37.6942 313.866 36.8768L313.47 36.3L313.073 35.7232C312.129 36.3725 310.679 36.8831 308.658 37.2089L308.77 37.9ZM313.47 36.3L313.85 36.8877C315.018 36.1318 316.213 35.2092 317.435 34.1232L316.97 33.6L316.505 33.0768C315.327 34.1241 314.188 35.0015 313.09 35.7123L313.47 36.3ZM316.97 33.6L317.465 34.095C317.741 33.8189 317.971 33.6358 318.155 33.5252C318.343 33.4125 318.442 33.4 318.47 33.4V32.7V32C318.098 32 317.747 32.1375 317.435 32.3248C317.119 32.5142 316.799 32.7811 316.475 33.105L316.97 33.6ZM318.47 32.7V33.4C318.543 33.4 318.574 33.4121 318.579 33.4147C318.581 33.4154 318.58 33.414 318.585 33.42C318.604 33.4454 318.67 33.5673 318.67 33.9H319.37H320.07C320.07 33.4327 319.986 32.9546 319.705 32.58C319.396 32.1675 318.941 32 318.47 32V32.7ZM319.37 33.9H318.67V39.3H319.37H320.07V33.9H319.37ZM319.37 39.3H318.67C318.67 39.6313 318.741 39.9688 318.938 40.2633C319.138 40.5639 319.427 40.7569 319.749 40.8641L319.97 40.2L320.191 39.5359C320.149 39.522 320.127 39.5085 320.117 39.5013C320.108 39.4947 320.105 39.4903 320.102 39.4867C320.099 39.4812 320.07 39.4354 320.07 39.3H319.37ZM319.97 40.2L319.855 40.8905C320.722 41.0351 321.316 40.3978 321.682 39.7399L321.07 39.4L320.458 39.06C320.318 39.3125 320.203 39.4332 320.133 39.4839C320.117 39.4953 320.106 39.5019 320.098 39.5055C320.091 39.509 320.087 39.51 320.087 39.5102C320.087 39.5103 320.087 39.5101 320.089 39.51C320.09 39.51 320.089 39.5102 320.085 39.5095L319.97 40.2Z" fill="#F9FAFB" fill-opacity="0.2" mask="url(#path-1-outside-1_38_149)"/>
</g>
<defs>
<clipPath id="clip0_38_149">
<rect width="338" height="65" fill="white"/>
</clipPath>
</defs>
</svg>
