<svg width="40" height="40" viewBox="0 0 40 40" fill="none" xmlns="http://www.w3.org/2000/svg">
<path d="M15.2207 8.63L15.2263 8.63222C15.3419 8.14 15.7619 7.77778 16.2875 7.77778H31.2582C31.2771 7.77778 31.296 7.77 31.3149 7.77111C30.996 2.46111 26.541 0 22.6105 0H7.63981C7.11308 0 6.69303 0.372222 6.57857 0.863333L6.57302 0.861111L0.0288924 30.9033L0.0433386 30.9044C0.0277812 30.9756 0 31.0433 0 31.12C0 31.7344 0.496727 32.2211 1.11125 32.2211H10.0801L15.2207 8.63Z" fill="#1565C0"/>
<path d="M31.3149 7.77111C31.3738 8.74445 31.3093 9.80333 31.0604 10.9733C29.6369 17.6344 24.4907 21.1011 18.1311 21.1011C18.1311 21.1011 14.2751 21.1011 13.3383 21.1011C12.7593 21.1011 12.4859 21.4411 12.3604 21.7011L10.4268 30.6444L10.0879 32.2322H10.0812L8.67771 38.6722L8.69216 38.6733C8.6766 38.7444 8.64882 38.8122 8.64882 38.8889C8.64882 39.5033 9.14555 40 9.76007 40H17.9088L17.9233 39.9889C18.4478 39.9811 18.8645 39.6067 18.9734 39.1133L18.9934 39.0967L21.007 29.7456C21.007 29.7456 21.147 28.8533 22.0849 28.8533C23.0228 28.8533 26.7277 28.8533 26.7277 28.8533C33.0873 28.8533 38.2857 25.4022 39.7103 18.74C41.3128 11.2289 35.9543 7.79889 31.3149 7.77111Z" fill="#039BE5"/>
<path d="M16.2875 7.77778C15.7608 7.77778 15.3407 8.14 15.2263 8.63222L15.2207 8.63L12.3593 21.7022C12.4848 21.4422 12.7582 21.1022 13.3372 21.1022C14.2751 21.1022 18.0433 21.1022 18.0433 21.1022C24.4029 21.1022 29.6358 17.6356 31.0593 10.9744C31.3093 9.80444 31.3727 8.74556 31.3138 7.77222C31.296 7.77 31.276 7.77778 31.2582 7.77778H16.2875Z" fill="#283593"/>
</svg>
