<svg preserveAspectRatio="none" width="100%" height="100%" overflow="visible" style="display: block;" viewBox="0 0 10.9374 10.9374" fill="none" xmlns="http://www.w3.org/2000/svg">
<path id="Vector" d="M10.4109 7.35317L7.83454 6.19872L7.82743 6.19544C7.69368 6.13823 7.54778 6.11527 7.40292 6.12864C7.25807 6.14201 7.11884 6.19128 6.99782 6.272C6.98357 6.28141 6.96987 6.29164 6.9568 6.30262L5.62571 7.43739C4.78243 7.02778 3.9118 6.16372 3.50219 5.33137L4.6386 3.98005C4.64954 3.96637 4.65993 3.9527 4.66977 3.93794C4.74875 3.81724 4.79668 3.67889 4.80927 3.5352C4.82186 3.39151 4.79874 3.24694 4.74196 3.11434V3.10778L3.58422 0.527077C3.50916 0.353862 3.38009 0.209569 3.21628 0.115738C3.05247 0.0219076 2.86271 -0.0164289 2.67532 0.00645183C1.93429 0.103963 1.25409 0.467888 0.761765 1.03025C0.269443 1.59262 -0.00133488 2.31497 4.94848e-06 3.06239C4.94848e-06 7.40458 3.53282 10.9374 7.875 10.9374C8.62242 10.9387 9.34477 10.668 9.90714 10.1756C10.4695 9.68331 10.8334 9.00311 10.9309 8.26208C10.9539 8.07475 10.9156 7.88504 10.8219 7.72123C10.7282 7.55743 10.584 7.42832 10.4109 7.35317ZM7.875 10.0624C6.01911 10.0604 4.23981 9.32221 2.9275 8.0099C1.61518 6.69758 0.877031 4.91828 0.875005 3.06239C0.872947 2.52836 1.06535 2.01184 1.41627 1.60929C1.76719 1.20674 2.25264 0.945691 2.78196 0.874889C2.78174 0.877071 2.78174 0.87927 2.78196 0.881452L3.9304 3.45176L2.8 4.80473C2.78853 4.81793 2.77811 4.83201 2.76883 4.84684C2.68654 4.97313 2.63826 5.11853 2.62868 5.26895C2.6191 5.41938 2.64854 5.56973 2.71415 5.70544C3.20961 6.7188 4.23063 7.73215 5.25493 8.22708C5.39163 8.29207 5.54285 8.32049 5.69382 8.30957C5.84479 8.29864 5.99034 8.24874 6.11625 8.16473C6.1303 8.15527 6.14381 8.14505 6.15672 8.13411L7.48618 6.99989L10.0565 8.15106C10.0565 8.15106 10.0609 8.15106 10.0625 8.15106C9.99257 8.68113 9.7319 9.16756 9.32928 9.51935C8.92666 9.87114 8.40966 10.0642 7.875 10.0624Z" fill="var(--fill-0, #868E96)"/>
</svg>
