<svg width="60" height="62" viewBox="0 0 60 62" fill="none" xmlns="http://www.w3.org/2000/svg">
<path d="M57.6923 16.0741C54.0213 16.0703 50.5016 14.6175 47.9058 12.0345C45.31 9.45145 43.85 5.94922 43.8462 2.2963C43.8462 1.68728 43.603 1.10321 43.1702 0.67257C42.7375 0.24193 42.1505 0 41.5385 0H30C29.388 0 28.801 0.24193 28.3682 0.67257C27.9354 1.10321 27.6923 1.68728 27.6923 2.2963V40.1852C27.6918 41.2124 27.4144 42.2208 26.8888 43.105C26.3633 43.9891 25.609 44.7168 24.7045 45.2121C23.8 45.7073 22.7786 45.952 21.7467 45.9206C20.7148 45.8892 19.7103 45.5829 18.838 45.0335C17.9656 44.4842 17.2574 43.712 16.7871 42.7975C16.3169 41.883 16.1019 40.8597 16.1645 39.8344C16.2271 38.809 16.5651 37.8191 17.1431 36.968C17.7212 36.1169 18.5182 35.4357 19.451 34.9956C19.8455 34.8092 20.1789 34.5153 20.4122 34.1479C20.6456 33.7806 20.7694 33.3549 20.7692 32.9203V20.6667C20.7694 20.331 20.6956 19.9994 20.553 19.6952C20.4104 19.391 20.2026 19.1216 19.9441 18.9059C19.6856 18.6903 19.3827 18.5337 19.0568 18.4471C18.7308 18.3605 18.3898 18.3461 18.0577 18.4048C7.7625 20.2304 0 29.5935 0 40.1852C0 45.9708 2.30975 51.5195 6.42112 55.6106C10.5325 59.7017 16.1087 62 21.9231 62C27.7374 62 33.3137 59.7017 37.425 55.6106C41.5364 51.5195 43.8462 45.9708 43.8462 40.1852V28.7869C48.1202 31.0059 52.8716 32.1593 57.6923 32.1481C58.3043 32.1481 58.8913 31.9062 59.3241 31.4756C59.7569 31.0449 60 30.4609 60 29.8519V18.3704C60 17.7614 59.7569 17.1773 59.3241 16.7466C58.8913 16.316 58.3043 16.0741 57.6923 16.0741ZM55.3846 27.4522C50.8749 27.0546 46.5567 25.453 42.8856 22.8166C42.5405 22.5697 42.1337 22.4225 41.7099 22.3911C41.2861 22.3596 40.8618 22.4453 40.4838 22.6386C40.1058 22.8318 39.7888 23.1252 39.5677 23.4863C39.3466 23.8474 39.23 24.2623 39.2308 24.6852V40.1852C39.2308 44.7528 37.4073 49.1333 34.1615 52.3631C30.9156 55.5929 26.5134 57.4074 21.9231 57.4074C17.3328 57.4074 12.9305 55.5929 9.68469 52.3631C6.43887 49.1333 4.61538 44.7528 4.61538 40.1852C4.61538 32.7509 9.41538 26.0831 16.1538 23.6519V31.5942C14.6621 32.586 13.454 33.9455 12.6473 35.5401C11.8406 37.1347 11.4629 38.9101 11.551 40.6933C11.639 42.4764 12.1898 44.2064 13.1497 45.7146C14.1096 47.2229 15.4458 48.458 17.0281 49.2995C18.6104 50.141 20.3849 50.5602 22.1784 50.5163C23.972 50.4724 25.7236 49.9669 27.2624 49.049C28.8012 48.1311 30.0748 46.8321 30.959 45.2787C31.8432 43.7253 32.3079 41.9705 32.3077 40.1852V4.59259H39.375C39.894 8.63718 41.7476 12.3959 44.6451 15.2791C47.5426 18.1623 51.32 20.0067 55.3846 20.5231V27.4522Z" fill="#E9ECEF"/>
</svg>
