<svg width="22" height="22" viewBox="0 0 22 22" fill="none" xmlns="http://www.w3.org/2000/svg">
<path d="M21.1538 5.7037C19.8078 5.70236 18.5173 5.18684 17.5655 4.27029C16.6137 3.35374 16.0783 2.11102 16.0769 0.814815C16.0769 0.598712 15.9878 0.391461 15.8291 0.238654C15.6704 0.0858463 15.4552 0 15.2308 0H11C10.7756 0 10.5604 0.0858463 10.4017 0.238654C10.243 0.391461 10.1538 0.598712 10.1538 0.814815V14.2593C10.1537 14.6238 10.0519 14.9816 9.85924 15.2953C9.66654 15.6091 9.38995 15.8673 9.05831 16.043C8.72668 16.2187 8.35215 16.3056 7.9738 16.2944C7.59544 16.2833 7.22712 16.1746 6.90726 15.9796C6.5874 15.7847 6.32771 15.5107 6.15528 15.1862C5.98286 14.8617 5.90401 14.4986 5.92697 14.1348C5.94993 13.7709 6.07385 13.4197 6.28581 13.1177C6.49777 12.8157 6.79 12.574 7.13202 12.4178C7.2767 12.3517 7.39892 12.2474 7.48448 12.117C7.57004 11.9867 7.61544 11.8356 7.61538 11.6814V7.33333C7.61544 7.21423 7.58837 7.09656 7.5361 6.98861C7.48383 6.88067 7.40761 6.78507 7.31282 6.70855C7.21804 6.63203 7.10698 6.57646 6.98748 6.54574C6.86798 6.51502 6.74293 6.5099 6.62115 6.53074C2.84625 7.17852 0 10.5009 0 14.2593C0 16.3122 0.846907 18.2811 2.35441 19.7328C3.86191 21.1845 5.90653 22 8.03846 22C10.1704 22 12.215 21.1845 13.7225 19.7328C15.23 18.2811 16.0769 16.3122 16.0769 14.2593V10.2147C17.6441 11.0021 19.3862 11.4114 21.1538 11.4074C21.3783 11.4074 21.5935 11.3216 21.7522 11.1688C21.9109 11.0159 22 10.8087 22 10.5926V6.51852C22 6.30242 21.9109 6.09517 21.7522 5.94236C21.5935 5.78955 21.3783 5.7037 21.1538 5.7037ZM20.3077 9.74111C18.6541 9.60001 17.0708 9.03172 15.7247 8.0962C15.5982 8.00861 15.449 7.95636 15.2936 7.94522C15.1382 7.93407 14.9827 7.96446 14.8441 8.03303C14.7055 8.10161 14.5892 8.20571 14.5082 8.33385C14.4271 8.462 14.3843 8.60921 14.3846 8.75926V14.2593C14.3846 15.88 13.716 17.4344 12.5259 18.5805C11.3357 19.7265 9.72157 20.3704 8.03846 20.3704C6.35536 20.3704 4.74119 19.7265 3.55105 18.5805C2.36092 17.4344 1.69231 15.88 1.69231 14.2593C1.69231 11.6213 3.45231 9.25528 5.92308 8.39259V11.2108C5.37609 11.5628 4.93312 12.0452 4.63735 12.611C4.34157 13.1768 4.20307 13.8068 4.23536 14.4395C4.26764 15.0723 4.46961 15.6861 4.82157 16.2213C5.17353 16.7565 5.66347 17.1948 6.24365 17.4934C6.82383 17.792 7.47445 17.9407 8.1321 17.9251C8.78974 17.9096 9.43198 17.7302 9.99621 17.4045C10.5604 17.0788 11.0274 16.6178 11.3516 16.0666C11.6758 15.5154 11.8462 14.8927 11.8462 14.2593V1.62963H14.4375C14.6278 3.06481 15.3075 4.39855 16.3699 5.42161C17.4323 6.44467 18.8173 7.09916 20.3077 7.28241V9.74111Z" fill="#F1F3F5"/>
</svg>
