<svg preserveAspectRatio="none" width="100%" height="100%" overflow="visible" style="display: block;" viewBox="0 0 12 12" fill="none" xmlns="http://www.w3.org/2000/svg">
<path id="Vector" d="M11.5385 3.11111C10.8043 3.11038 10.1003 2.82919 9.58116 2.32925C9.062 1.82931 8.76999 1.15146 8.76923 0.444444C8.76923 0.32657 8.7206 0.213524 8.63405 0.130175C8.54749 0.0468252 8.4301 0 8.30769 0H6C5.87759 0 5.7602 0.0468252 5.67364 0.130175C5.58709 0.213524 5.53846 0.32657 5.53846 0.444444V7.77778C5.53837 7.9766 5.48287 8.17176 5.37776 8.34289C5.27266 8.51403 5.12179 8.65487 4.9409 8.75072C4.76001 8.84658 4.55572 8.89394 4.34934 8.88786C4.14297 8.88178 3.94207 8.82249 3.7676 8.71617C3.59313 8.60985 3.45148 8.46039 3.35743 8.28339C3.26338 8.10639 3.22037 7.90834 3.23289 7.70988C3.24542 7.51142 3.31301 7.31983 3.42862 7.1551C3.54424 6.99037 3.70364 6.85853 3.89019 6.77333C3.96911 6.73727 4.03577 6.68038 4.08244 6.60928C4.12911 6.53818 4.15387 6.45578 4.15385 6.37167V4C4.15388 3.93503 4.13911 3.87085 4.1106 3.81197C4.08209 3.75309 4.04051 3.70095 3.98881 3.65921C3.93711 3.61747 3.87653 3.58716 3.81135 3.5704C3.74617 3.55365 3.67796 3.55085 3.61154 3.56222C1.5525 3.91556 0 5.72778 0 7.77778C0 8.89758 0.461949 9.97152 1.28422 10.7633C2.1065 11.5552 3.22174 12 4.38462 12C5.54749 12 6.66273 11.5552 7.48501 10.7633C8.30728 9.97152 8.76923 8.89758 8.76923 7.77778V5.57167C9.62403 6.00113 10.5743 6.22438 11.5385 6.22222C11.6609 6.22222 11.7783 6.1754 11.8648 6.09205C11.9514 6.0087 12 5.89565 12 5.77778V3.55556C12 3.43768 11.9514 3.32464 11.8648 3.24129C11.7783 3.15794 11.6609 3.11111 11.5385 3.11111ZM11.0769 5.31333C10.175 5.23637 9.31134 4.92639 8.57712 4.41611C8.50811 4.36833 8.42674 4.33983 8.34198 4.33375C8.25722 4.32767 8.17236 4.34425 8.09676 4.38165C8.02116 4.41906 7.95776 4.47584 7.91354 4.54574C7.86932 4.61563 7.846 4.69593 7.84615 4.77778V7.77778C7.84615 8.66183 7.48146 9.50968 6.83229 10.1348C6.18313 10.7599 5.30267 11.1111 4.38462 11.1111C3.46656 11.1111 2.5861 10.7599 1.93694 10.1348C1.28777 9.50968 0.923077 8.66183 0.923077 7.77778C0.923077 6.33889 1.88308 5.04833 3.23077 4.57778V6.115C2.93241 6.30696 2.69079 6.57009 2.52946 6.87873C2.36813 7.18737 2.29258 7.53099 2.3102 7.87611C2.32781 8.22123 2.43797 8.55607 2.62995 8.84799C2.82192 9.13992 3.08917 9.37896 3.40563 9.54184C3.72209 9.70471 4.07697 9.78585 4.43569 9.77735C4.79441 9.76886 5.14472 9.67101 5.45248 9.49335C5.76024 9.31569 6.01496 9.06428 6.1918 8.76362C6.36864 8.46296 6.46157 8.12331 6.46154 7.77778V0.888889H7.875C7.9788 1.67171 8.34952 2.39921 8.92902 2.95724C9.50852 3.51527 10.264 3.87227 11.0769 3.97222V5.31333Z" fill="var(--fill-0, #868E96)"/>
</svg>
