<svg width="38" height="38" viewBox="0 0 38 38" fill="none" xmlns="http://www.w3.org/2000/svg">
<path d="M4 0.25H34C36.0711 0.25 37.75 1.92893 37.75 4V34C37.75 36.0711 36.0711 37.75 34 37.75H4C1.92893 37.75 0.25 36.0711 0.25 34V4C0.25 1.92893 1.92893 0.25 4 0.25Z" stroke="white" stroke-width="0.5"/>
<path d="M29.1538 13.7037C27.8078 13.7024 26.5173 13.1868 25.5655 12.2703C24.6137 11.3537 24.0783 10.111 24.0769 8.81481C24.0769 8.59871 23.9878 8.39146 23.8291 8.23865C23.6704 8.08585 23.4552 8 23.2308 8H19C18.7756 8 18.5604 8.08585 18.4017 8.23865C18.243 8.39146 18.1538 8.59871 18.1538 8.81481V22.2593C18.1537 22.6238 18.0519 22.9816 17.8592 23.2953C17.6665 23.6091 17.3899 23.8673 17.0583 24.043C16.7267 24.2187 16.3522 24.3056 15.9738 24.2944C15.5954 24.2833 15.2271 24.1746 14.9073 23.9796C14.5874 23.7847 14.3277 23.5107 14.1553 23.1862C13.9829 22.8617 13.904 22.4986 13.927 22.1348C13.9499 21.7709 14.0739 21.4197 14.2858 21.1177C14.4978 20.8157 14.79 20.574 15.132 20.4178C15.2767 20.3517 15.3989 20.2474 15.4845 20.117C15.57 19.9867 15.6154 19.8356 15.6154 19.6814V15.3333C15.6154 15.2142 15.5884 15.0966 15.5361 14.9886C15.4838 14.8807 15.4076 14.7851 15.3128 14.7086C15.218 14.632 15.107 14.5765 14.9875 14.5457C14.868 14.515 14.7429 14.5099 14.6212 14.5307C10.8463 15.1785 8 18.5009 8 22.2593C8 24.3122 8.84691 26.2811 10.3544 27.7328C11.8619 29.1845 13.9065 30 16.0385 30C18.1704 30 20.215 29.1845 21.7225 27.7328C23.23 26.2811 24.0769 24.3122 24.0769 22.2593V18.2147C25.6441 19.0021 27.3862 19.4114 29.1538 19.4074C29.3783 19.4074 29.5935 19.3216 29.7522 19.1688C29.9109 19.0159 30 18.8087 30 18.5926V14.5185C30 14.3024 29.9109 14.0952 29.7522 13.9424C29.5935 13.7896 29.3783 13.7037 29.1538 13.7037ZM28.3077 17.7411C26.6541 17.6 25.0708 17.0317 23.7247 16.0962C23.5982 16.0086 23.449 15.9564 23.2936 15.9452C23.1382 15.9341 22.9827 15.9645 22.8441 16.033C22.7055 16.1016 22.5892 16.2057 22.5082 16.3339C22.4271 16.462 22.3843 16.6092 22.3846 16.7593V22.2593C22.3846 23.88 21.716 25.4344 20.5259 26.5805C19.3357 27.7265 17.7216 28.3704 16.0385 28.3704C14.3554 28.3704 12.7412 27.7265 11.5511 26.5805C10.3609 25.4344 9.69231 23.88 9.69231 22.2593C9.69231 19.6213 11.4523 17.2553 13.9231 16.3926V19.2108C13.3761 19.5628 12.9331 20.0452 12.6373 20.611C12.3416 21.1768 12.2031 21.8068 12.2354 22.4395C12.2676 23.0723 12.4696 23.6861 12.8216 24.2213C13.1735 24.7565 13.6635 25.1948 14.2437 25.4934C14.8238 25.792 15.4745 25.9407 16.1321 25.9251C16.7897 25.9096 17.432 25.7302 17.9962 25.4045C18.5604 25.0788 19.0274 24.6178 19.3516 24.0666C19.6758 23.5154 19.8462 22.8927 19.8462 22.2593V9.62963H22.4375C22.6278 11.0648 23.3075 12.3985 24.3699 13.4216C25.4323 14.4447 26.8173 15.0992 28.3077 15.2824V17.7411Z" fill="#F1F3F5"/>
</svg>
