<svg width="40" height="40" viewBox="0 0 40 40" fill="none" xmlns="http://www.w3.org/2000/svg">
<path d="M32.2222 40H7.77778C3.48222 40 0 36.5178 0 32.2222V7.77778C0 3.48222 3.48222 0 7.77778 0H32.2222C36.5178 0 40 3.48222 40 7.77778V32.2222C40 36.5178 36.5178 40 32.2222 40Z" fill="#AA00FF"/>
<path d="M12.7778 13.8889H28.3333C28.9467 13.8889 29.4444 13.3911 29.4444 12.7778V10C29.4444 9.38667 28.9467 8.88889 28.3333 8.88889H12.7778C12.1644 8.88889 11.6667 9.38667 11.6667 10V12.7778C11.6667 13.3911 12.1644 13.8889 12.7778 13.8889Z" fill="white"/>
<path d="M12.2222 31.6667H28.3333C28.9467 31.6667 29.4444 31.1689 29.4444 30.5556V27.7778C29.4444 27.1644 28.9467 26.6667 28.3333 26.6667H12.2222C11.6089 26.6667 11.1111 27.1644 11.1111 27.7778V30.5556C11.1111 31.1689 11.6089 31.6667 12.2222 31.6667Z" fill="white"/>
<path d="M18.0556 5.55556V12.2222C18.0556 12.5289 18.3044 12.7778 18.6111 12.7778H22.5C22.8067 12.7778 23.0556 12.5289 23.0556 12.2222V5.55556C23.0556 5.24889 22.8067 5 22.5 5H18.6111C18.3044 5 18.0556 5.24889 18.0556 5.55556Z" fill="white"/>
<path d="M18.0556 28.8889V35.5556C18.0556 35.8622 18.3044 36.1111 18.6111 36.1111H22.5C22.8067 36.1111 23.0556 35.8622 23.0556 35.5556V28.8889C23.0556 28.5822 22.8067 28.3333 22.5 28.3333H18.6111C18.3044 28.3333 18.0556 28.5822 18.0556 28.8889Z" fill="white"/>
<path d="M11.7533 27.7089H17.7778L29.2156 13.4433C29.4133 13.1967 29.2367 12.83 28.92 12.83H22.7778L11.4167 26.9978C11.1833 27.2811 11.3856 27.7089 11.7533 27.7089Z" fill="white"/>
</svg>
